<svg width="26" height="24" viewBox="0 0 24 22" fill="none" xmlns="http://www.w3.org/2000/svg">
<path fill-rule="evenodd" clip-rule="evenodd" d="M12.7022 2.69256C12.5418 2.48252 12.2797 2.35742 12 2.35742C11.7203 2.35742 11.4582 2.48252 11.2978 2.69256L5.88369 9.78248L1.46323 5.73041C1.21809 5.5057 0.84942 5.43847 0.529128 5.56009C0.208836 5.6817 0 5.9682 0 6.28599V16.5003C0 17.3338 0.361224 18.1331 1.0042 18.7226C1.64719 19.312 2.51926 19.6431 3.42857 19.6431H20.5714C21.4807 19.6431 22.3527 19.312 22.9958 18.7226C23.6388 18.1331 24 17.3338 24 16.5003V6.28599C24 5.9682 23.7912 5.6817 23.4708 5.56009C23.1506 5.43847 22.7818 5.5057 22.5367 5.73041L18.1164 9.78248L12.7022 2.69256Z" fill="#FFB733"/>
</svg>
