<svg width="48" height="48" viewBox="0 0 48 48" fill="none" xmlns="http://www.w3.org/2000/svg">
<path d="M26.8402 6.50006L26.3099 7.0304L26.3435 7.06401L26.3811 7.09311L26.8402 6.50006ZM9.84023 9.50006L10.5527 9.73431L10.5612 9.70841L10.5678 9.68196L9.84023 9.50006ZM5.04023 24.1001L5.74654 24.3523L5.74974 24.3433L5.75272 24.3343L5.04023 24.1001ZM18.8402 31.7001L19.5813 31.8159L19.5827 31.8061L18.8402 31.7001ZM17.8402 38.1001L18.5724 38.2628L18.5776 38.2394L18.5812 38.2158L17.8402 38.1001ZM20.4402 42.5001L20.7036 41.7978L20.6906 41.7929L20.6774 41.7886L20.4402 42.5001ZM24.8402 41.1001L24.2178 40.6817L24.2162 40.684L24.8402 41.1001ZM33.4994 10.707L27.2994 5.90702L26.3811 7.09311L32.5811 11.8931L33.4994 10.707ZM27.3706 5.96973C26.8372 5.43638 26.0422 5.09205 25.2963 4.87892C24.532 4.66055 23.7127 4.55006 23.0402 4.55006V6.05006C23.5678 6.05006 24.2485 6.13958 24.8842 6.32121C25.5382 6.50808 26.0433 6.76375 26.3099 7.0304L27.3706 5.96973ZM23.0402 4.55006H15.4402V6.05006H23.0402V4.55006ZM15.4402 4.55006C14.0605 4.55006 12.6583 5.06364 11.5224 5.89479C10.3859 6.72634 9.46337 7.9152 9.11263 9.31816L10.5678 9.68196C10.8171 8.68493 11.4946 7.77379 12.4081 7.10534C13.3222 6.43649 14.42 6.05006 15.4402 6.05006V4.55006ZM9.12775 9.26582L4.32775 23.8658L5.75272 24.3343L10.5527 9.73431L9.12775 9.26582ZM4.33393 23.8478C3.75991 25.4551 3.97179 27.0215 4.83644 28.195C5.69756 29.3636 7.13732 30.0501 8.84023 30.0501V28.5501C7.54315 28.5501 6.5829 28.0365 6.04403 27.3052C5.50867 26.5786 5.32056 25.5451 5.74654 24.3523L4.33393 23.8478ZM8.84023 30.0501H16.8402V28.5501H8.84023V30.0501ZM16.8402 30.0501C17.5969 30.0501 18.2314 30.6587 18.0978 31.594L19.5827 31.8061C19.8491 29.9415 18.4836 28.5501 16.8402 28.5501V30.0501ZM18.0992 31.5843L17.0992 37.9843L18.5812 38.2158L19.5812 31.8158L18.0992 31.5843ZM17.1081 37.9374C16.6188 40.1393 18.0651 42.4989 20.2031 43.2116L20.6774 41.7886C19.2154 41.3012 18.2617 39.6608 18.5724 38.2628L17.1081 37.9374ZM20.1769 43.2023C21.1739 43.5762 22.2572 43.5029 23.184 43.1843C24.1059 42.8675 24.9552 42.2798 25.4643 41.5161L24.2162 40.684C23.9253 41.1204 23.3746 41.5327 22.6964 41.7658C22.0233 41.9972 21.3066 42.0239 20.7036 41.7978L20.1769 43.2023ZM25.4627 41.5184L33.6627 29.3184L32.4178 28.4817L24.2178 40.6817L25.4627 41.5184ZM42.4902 11.3001V30.9001H43.9902V11.3001H42.4902ZM42.4902 30.9001C42.4902 32.2156 42.2052 32.9078 41.7815 33.299C41.3431 33.7037 40.5828 33.9501 39.2402 33.9501V35.4501C40.6977 35.4501 41.9374 35.1964 42.7989 34.4012C43.6752 33.5923 43.9902 32.3846 43.9902 30.9001H42.4902ZM39.2402 33.9501H37.2402V35.4501H39.2402V33.9501ZM37.2402 33.9501C35.8977 33.9501 35.1374 33.7037 34.6989 33.299C34.2752 32.9078 33.9902 32.2156 33.9902 30.9001H32.4902C32.4902 32.3846 32.8052 33.5923 33.6815 34.4012C34.5431 35.1964 35.7828 35.4501 37.2402 35.4501V33.9501ZM33.9902 30.9001V11.3001H32.4902V30.9001H33.9902ZM33.9902 11.3001C33.9902 9.98457 34.2752 9.29229 34.6989 8.90117C35.1374 8.49644 35.8977 8.25006 37.2402 8.25006V6.75006C35.7828 6.75006 34.5431 7.00368 33.6815 7.79896C32.8052 8.60784 32.4902 9.81555 32.4902 11.3001H33.9902ZM37.2402 8.25006H39.2402V6.75006H37.2402V8.25006ZM39.2402 8.25006C40.5828 8.25006 41.3431 8.49644 41.7815 8.90117C42.2052 9.29229 42.4902 9.98457 42.4902 11.3001H43.9902C43.9902 9.81555 43.6752 8.60784 42.7989 7.79896C41.9374 7.00368 40.6977 6.75006 39.2402 6.75006V8.25006Z" fill="currentColor"/>
</svg>
