<svg width="48" height="48" viewBox="0 0 48 48" fill="none" xmlns="http://www.w3.org/2000/svg">
<path d="M21.1598 41.4999L21.6901 40.9696L21.6565 40.936L21.6189 40.9069L21.1598 41.4999ZM38.1598 38.4999L37.4473 38.2657L37.4388 38.2916L37.4322 38.318L38.1598 38.4999ZM42.9598 23.8999L42.2535 23.6477L42.2503 23.6567L42.2473 23.6657L42.9598 23.8999ZM29.1598 16.2999L28.4187 16.1841L28.4173 16.1939L29.1598 16.2999ZM30.1598 9.89994L29.4276 9.73724L29.4224 9.76055L29.4188 9.78415L30.1598 9.89994ZM27.5598 5.49994L27.2964 6.20218L27.3094 6.20706L27.3226 6.21145L27.5598 5.49994ZM23.1598 6.89994L23.7822 7.31832L23.7838 7.31596L23.1598 6.89994ZM14.5006 37.293L20.7006 42.093L21.6189 40.9069L15.4189 36.1069L14.5006 37.293ZM20.6294 42.0303C21.1628 42.5636 21.9578 42.9079 22.7037 43.1211C23.468 43.3395 24.2873 43.4499 24.9598 43.4499V41.9499C24.4322 41.9499 23.7515 41.8604 23.1158 41.6788C22.4618 41.4919 21.9567 41.2363 21.6901 40.9696L20.6294 42.0303ZM24.9598 43.4499H32.5598V41.9499H24.9598V43.4499ZM32.5598 43.4499C33.9395 43.4499 35.3417 42.9364 36.4776 42.1052C37.6141 41.2737 38.5366 40.0848 38.8874 38.6818L37.4322 38.318C37.1829 39.3151 36.5054 40.2262 35.5919 40.8947C34.6778 41.5635 33.58 41.9499 32.5598 41.9499V43.4499ZM38.8722 38.7342L43.6722 24.1342L42.2473 23.6657L37.4473 38.2657L38.8722 38.7342ZM43.6661 24.1522C44.2401 22.5449 44.0282 20.9785 43.1636 19.805C42.3024 18.6364 40.8627 17.9499 39.1598 17.9499V19.4499C40.4569 19.4499 41.4171 19.9635 41.956 20.6948C42.4913 21.4214 42.6794 22.4549 42.2535 23.6477L43.6661 24.1522ZM39.1598 17.9499H31.1598V19.4499H39.1598V17.9499ZM31.1598 17.9499C30.4031 17.9499 29.7686 17.3413 29.9022 16.406L28.4173 16.1939C28.1509 18.0585 29.5164 19.4499 31.1598 19.4499V17.9499ZM29.9008 16.4157L30.9008 10.0157L29.4188 9.78415L28.4188 16.1842L29.9008 16.4157ZM30.8919 10.0626C31.3812 7.86065 29.9349 5.50108 27.7969 4.78842L27.3226 6.21145C28.7846 6.69879 29.7383 8.33922 29.4276 9.73724L30.8919 10.0626ZM27.8231 4.79769C26.8261 4.4238 25.7428 4.49706 24.816 4.81567C23.8941 5.13255 23.0448 5.72024 22.5357 6.48391L23.7838 7.31596C24.0747 6.87963 24.6254 6.46732 25.3036 6.2342C25.9767 6.00281 26.6934 5.97607 27.2964 6.20218L27.8231 4.79769ZM22.5373 6.48156L14.3373 18.6816L15.5822 19.5183L23.7822 7.31831L22.5373 6.48156ZM5.50977 36.6999V17.0999H4.00977V36.6999H5.50977ZM5.50977 17.0999C5.50977 15.7844 5.79476 15.0922 6.21848 14.701C6.65693 14.2963 7.41725 14.0499 8.75977 14.0499V12.5499C7.30228 12.5499 6.0626 12.8036 5.20106 13.5988C4.32477 14.4077 4.00977 15.6154 4.00977 17.0999H5.50977ZM8.75977 14.0499H10.7598V12.5499H8.75977V14.0499ZM10.7598 14.0499C12.1023 14.0499 12.8626 14.2963 13.3011 14.701C13.7248 15.0922 14.0098 15.7844 14.0098 17.0999H15.5098C15.5098 15.6154 15.1948 14.4077 14.3185 13.5988C13.4569 12.8036 12.2172 12.5499 10.7598 12.5499V14.0499ZM14.0098 17.0999V36.6999H15.5098V17.0999H14.0098ZM14.0098 36.6999C14.0098 38.0154 13.7248 38.7077 13.3011 39.0988C12.8626 39.5036 12.1023 39.7499 10.7598 39.7499V41.2499C12.2172 41.2499 13.4569 40.9963 14.3185 40.201C15.1948 39.3922 15.5098 38.1844 15.5098 36.6999H14.0098ZM10.7598 39.7499H8.75977V41.2499H10.7598V39.7499ZM8.75977 39.7499C7.41725 39.7499 6.65693 39.5036 6.21848 39.0988C5.79476 38.7077 5.50977 38.0154 5.50977 36.6999H4.00977C4.00977 38.1844 4.32477 39.3922 5.20106 40.201C6.0626 40.9963 7.30228 41.2499 8.75977 41.2499V39.7499Z" fill="currentColor"/>
</svg>
