<svg width="36" height="36" viewBox="0 0 36 36" fill="none" xmlns="http://www.w3.org/2000/svg">
<path d="M27 33C25.75 33 24.6875 32.5625 23.8125 31.6875C22.9375 30.8125 22.5 29.75 22.5 28.5C22.5 28.325 22.5125 28.1438 22.5375 27.9563C22.5625 27.7688 22.6 27.6 22.65 27.45L12.075 21.3C11.65 21.675 11.175 21.9688 10.65 22.1813C10.125 22.3938 9.575 22.5 9 22.5C7.75 22.5 6.6875 22.0625 5.8125 21.1875C4.9375 20.3125 4.5 19.25 4.5 18C4.5 16.75 4.9375 15.6875 5.8125 14.8125C6.6875 13.9375 7.75 13.5 9 13.5C9.575 13.5 10.125 13.6062 10.65 13.8188C11.175 14.0312 11.65 14.325 12.075 14.7L22.65 8.55C22.6 8.4 22.5625 8.23125 22.5375 8.04375C22.5125 7.85625 22.5 7.675 22.5 7.5C22.5 6.25 22.9375 5.1875 23.8125 4.3125C24.6875 3.4375 25.75 3 27 3C28.25 3 29.3125 3.4375 30.1875 4.3125C31.0625 5.1875 31.5 6.25 31.5 7.5C31.5 8.75 31.0625 9.8125 30.1875 10.6875C29.3125 11.5625 28.25 12 27 12C26.425 12 25.875 11.8938 25.35 11.6812C24.825 11.4688 24.35 11.175 23.925 10.8L13.35 16.95C13.4 17.1 13.4375 17.2687 13.4625 17.4562C13.4875 17.6437 13.5 17.825 13.5 18C13.5 18.175 13.4875 18.3563 13.4625 18.5438C13.4375 18.7313 13.4 18.9 13.35 19.05L23.925 25.2C24.35 24.825 24.825 24.5312 25.35 24.3188C25.875 24.1063 26.425 24 27 24C28.25 24 29.3125 24.4375 30.1875 25.3125C31.0625 26.1875 31.5 27.25 31.5 28.5C31.5 29.75 31.0625 30.8125 30.1875 31.6875C29.3125 32.5625 28.25 33 27 33ZM27 9C27.425 9 27.7812 8.85625 28.0688 8.56875C28.3563 8.28125 28.5 7.925 28.5 7.5C28.5 7.075 28.3563 6.71875 28.0688 6.43125C27.7812 6.14375 27.425 6 27 6C26.575 6 26.2188 6.14375 25.9313 6.43125C25.6438 6.71875 25.5 7.075 25.5 7.5C25.5 7.925 25.6438 8.28125 25.9313 8.56875C26.2188 8.85625 26.575 9 27 9ZM9 19.5C9.425 19.5 9.78125 19.3563 10.0688 19.0688C10.3563 18.7813 10.5 18.425 10.5 18C10.5 17.575 10.3563 17.2188 10.0688 16.9313C9.78125 16.6438 9.425 16.5 9 16.5C8.575 16.5 8.21875 16.6438 7.93125 16.9313C7.64375 17.2188 7.5 17.575 7.5 18C7.5 18.425 7.64375 18.7813 7.93125 19.0688C8.21875 19.3563 8.575 19.5 9 19.5ZM27 30C27.425 30 27.7812 29.8562 28.0688 29.5687C28.3563 29.2812 28.5 28.925 28.5 28.5C28.5 28.075 28.3563 27.7188 28.0688 27.4313C27.7812 27.1438 27.425 27 27 27C26.575 27 26.2188 27.1438 25.9313 27.4313C25.6438 27.7188 25.5 28.075 25.5 28.5C25.5 28.925 25.6438 29.2812 25.9313 29.5687C26.2188 29.8562 26.575 30 27 30Z" fill="#1D1B20"/>
</svg>
