<svg width="34" height="34" viewBox="0 0 34 34" fill="none" xmlns="http://www.w3.org/2000/svg">
<path d="M8.66667 15.5V9.5C8.66667 7.51088 9.54464 5.60322 11.1074 4.1967C12.6702 2.79018 14.7899 2 17 2C19.2101 2 21.3298 2.79018 22.8926 4.1967C24.4554 5.60322 25.3333 7.51088 25.3333 9.5V15.5M5.33333 15.5H28.6667C30.5076 15.5 32 16.8431 32 18.5V29C32 30.6569 30.5076 32 28.6667 32H5.33333C3.49238 32 2 30.6569 2 29V18.5C2 16.8431 3.49238 15.5 5.33333 15.5Z" stroke="#AAAAAA" stroke-width="2.5" stroke-linecap="round" stroke-linejoin="round"/>
</svg>
