<svg width="16" height="17" viewBox="0 0 16 17" fill="none" xmlns="http://www.w3.org/2000/svg">
<path d="M10.6643 8.09477H10.6703M7.99698 8.09477H8.00297M5.32967 8.09477H5.33565M5.66666 13.3656H5.33333C2.66666 13.3656 1.33333 12.7068 1.33333 9.41249V6.11819C1.33333 3.48276 2.66666 2.16504 5.33333 2.16504H10.6667C13.3333 2.16504 14.6667 3.48276 14.6667 6.11819V9.41249C14.6667 12.0479 13.3333 13.3656 10.6667 13.3656H10.3333C10.1267 13.3656 9.92666 13.4645 9.8 13.6292L8.8 14.9469C8.35999 15.5267 7.64 15.5267 7.2 14.9469L6.2 13.6292C6.09333 13.4842 5.84666 13.3656 5.66666 13.3656Z" stroke="#292D32" stroke-width="1.5" stroke-linecap="round" stroke-linejoin="round"/>
</svg>
