<svg width="16" height="17" viewBox="0 0 16 17" fill="none" xmlns="http://www.w3.org/2000/svg">
<path d="M7.05334 14.5195L7.58053 13.986L7.54678 13.9526L7.50908 13.9238L7.05334 14.5195ZM12.72 13.5312L12.0083 13.2944L11.9997 13.3205L11.9929 13.3472L12.72 13.5312ZM14.32 8.72149L13.6146 8.4666L13.6114 8.47563L13.6083 8.48475L14.32 8.72149ZM9.72 6.21783L8.97914 6.1007L8.97772 6.11053L9.72 6.21783ZM10.0533 4.10948L9.32161 3.94495L9.31631 3.96851L9.31254 3.99236L10.0533 4.10948ZM9.18667 2.65999L8.92604 3.36325L8.93894 3.36803L8.952 3.37233L9.18667 2.65999ZM7.72 3.12119L8.34017 3.54297L8.34176 3.54061L7.72 3.12119ZM4.53092 13.5338L6.59759 15.1151L7.50908 13.9238L5.44242 12.3425L4.53092 13.5338ZM6.52614 15.0529C6.79316 15.3168 7.1545 15.4591 7.43286 15.5377C7.72991 15.6216 8.04844 15.6648 8.32 15.6648V14.1648C8.19157 14.1648 8.0101 14.1421 7.84048 14.0942C7.65218 14.041 7.58018 13.9857 7.58053 13.986L6.52614 15.0529ZM8.32 15.6648H10.8533V14.1648H8.32V15.6648ZM10.8533 15.6648C11.4308 15.6648 11.9985 15.4545 12.4512 15.1272C12.904 14.7997 13.2953 14.3153 13.4471 13.7151L11.9929 13.3472C11.9447 13.5377 11.8027 13.745 11.5722 13.9117C11.3415 14.0785 11.0759 14.1648 10.8533 14.1648V15.6648ZM13.4317 13.7679L15.0317 8.95824L13.6083 8.48475L12.0083 13.2944L13.4317 13.7679ZM15.0254 8.97639C15.2678 8.30541 15.1884 7.60792 14.7879 7.07078C14.3921 6.53989 13.7528 6.25846 13.0533 6.25846V7.75846C13.3539 7.75846 13.5145 7.87234 13.5854 7.96737C13.6516 8.05615 13.7055 8.21518 13.6146 8.4666L15.0254 8.97639ZM13.0533 6.25846H10.3867V7.75846H13.0533V6.25846ZM10.3867 6.25846C10.3937 6.25846 10.4162 6.26235 10.4378 6.2866C10.4486 6.29869 10.4558 6.31243 10.4594 6.32454C10.4631 6.33705 10.4603 6.33896 10.4623 6.32513L8.97772 6.11053C8.84238 7.04679 9.55314 7.75846 10.3867 7.75846V6.25846ZM10.4608 6.33495L10.7941 4.2266L9.31254 3.99236L8.9792 6.10071L10.4608 6.33495ZM10.7851 4.27401C11.0105 3.27151 10.3551 2.25526 9.42134 1.94765L8.952 3.37233C9.21822 3.46003 9.36285 3.7615 9.32161 3.94495L10.7851 4.27401ZM9.4473 1.95673C8.98554 1.7856 8.50442 1.8248 8.11208 1.95809C7.72504 2.08958 7.34187 2.34061 7.09824 2.70177L8.34176 3.54061C8.36481 3.50645 8.4483 3.42806 8.59459 3.37836C8.73559 3.33046 8.85447 3.33672 8.92604 3.36325L9.4473 1.95673ZM7.09984 2.69942L4.3665 6.71846L5.60684 7.56201L8.34017 3.54296L7.09984 2.69942ZM2.33667 12.9382V6.48137H0.83667V12.9382H2.33667ZM2.33667 6.48137C2.33667 6.3004 2.35688 6.19059 2.37717 6.12801C2.38675 6.09848 2.39543 6.08232 2.40009 6.07479C2.4044 6.06784 2.40715 6.06514 2.4088 6.06363C2.41407 6.05883 2.50927 5.97954 2.92 5.97954V4.47954C2.3974 4.47954 1.82593 4.56497 1.39787 4.95548C0.952706 5.36159 0.83667 5.93351 0.83667 6.48137H2.33667ZM2.92 5.97954H3.58667V4.47954H2.92V5.97954ZM3.58667 5.97954C3.9974 5.97954 4.0926 6.05883 4.09787 6.06363C4.09952 6.06514 4.10228 6.06784 4.10658 6.07479C4.11124 6.08232 4.11992 6.09848 4.1295 6.12801C4.1498 6.19059 4.17 6.3004 4.17 6.48137H5.67C5.67 5.93351 5.55397 5.36159 5.1088 4.95548C4.68074 4.56497 4.10927 4.47954 3.58667 4.47954V5.97954ZM4.17 6.48137V12.9382H5.67V6.48137H4.17ZM4.17 12.9382C4.17 13.1192 4.1498 13.229 4.1295 13.2916C4.11992 13.3211 4.11124 13.3372 4.10658 13.3448C4.10228 13.3517 4.09952 13.3544 4.09787 13.3559C4.0926 13.3607 3.9974 13.44 3.58667 13.44V14.94C4.10927 14.94 4.68074 14.8546 5.1088 14.4641C5.55397 14.058 5.67 13.4861 5.67 12.9382H4.17ZM3.58667 13.44H2.92V14.94H3.58667V13.44ZM2.92 13.44C2.50927 13.44 2.41407 13.3607 2.4088 13.3559C2.40715 13.3544 2.4044 13.3517 2.40009 13.3448C2.39543 13.3372 2.38675 13.3211 2.37717 13.2916C2.35688 13.229 2.33667 13.1192 2.33667 12.9382H0.83667C0.83667 13.4861 0.952706 14.058 1.39787 14.4641C1.82593 14.8546 2.3974 14.94 2.92 14.94V13.44Z" fill="#292D32"/>
</svg>
