<svg width="48" height="48" viewBox="0 0 48 48" fill="none" xmlns="http://www.w3.org/2000/svg">
<path d="M31.1599 24.0004C31.1599 27.9604 27.9599 31.1604 23.9999 31.1604C20.0399 31.1604 16.8399 27.9604 16.8399 24.0004C16.8399 20.0404 20.0399 16.8404 23.9999 16.8404C27.9599 16.8404 31.1599 20.0404 31.1599 24.0004Z" stroke="#292D32" stroke-width="1.5" stroke-linecap="round" stroke-linejoin="round"/>
<path d="M23.9999 40.5404C31.0599 40.5404 37.6399 36.3804 42.2199 29.1804C44.0199 26.3604 44.0199 21.6204 42.2199 18.8004C37.6399 11.6004 31.0599 7.44043 23.9999 7.44043C16.9399 7.44043 10.3599 11.6004 5.77993 18.8004C3.97993 21.6204 3.97993 26.3604 5.77993 29.1804C10.3599 36.3804 16.9399 40.5404 23.9999 40.5404Z" stroke="#292D32" stroke-width="1.5" stroke-linecap="round" stroke-linejoin="round"/>
</svg>
