<svg width="48" height="48" viewBox="0 0 48 48" fill="none" xmlns="http://www.w3.org/2000/svg">
<path d="M21.16 41.4999L21.6903 40.9696L21.6567 40.936L21.6191 40.9069L21.16 41.4999ZM38.16 38.4999L37.4475 38.2657L37.439 38.2916L37.4324 38.318L38.16 38.4999ZM42.96 23.8999L42.2537 23.6477L42.2505 23.6567L42.2475 23.6657L42.96 23.8999ZM29.16 16.2999L28.4189 16.1841L28.4175 16.1939L29.16 16.2999ZM30.16 9.89994L29.4279 9.73724L29.4227 9.76055L29.419 9.78415L30.16 9.89994ZM27.56 5.49994L27.2967 6.20218L27.3097 6.20706L27.3228 6.21145L27.56 5.49994ZM23.16 6.89994L23.7825 7.31832L23.784 7.31596L23.16 6.89994ZM14.5009 37.293L20.7009 42.093L21.6191 40.9069L15.4191 36.1069L14.5009 37.293ZM20.6297 42.0303C21.163 42.5636 21.958 42.9079 22.704 43.1211C23.4683 43.3395 24.2876 43.4499 24.96 43.4499V41.9499C24.4324 41.9499 23.7517 41.8604 23.1161 41.6788C22.462 41.4919 21.957 41.2363 21.6903 40.9696L20.6297 42.0303ZM24.96 43.4499H32.56V41.9499H24.96V43.4499ZM32.56 43.4499C33.9398 43.4499 35.342 42.9364 36.4779 42.1052C37.6143 41.2737 38.5369 40.0848 38.8876 38.6818L37.4324 38.318C37.1831 39.3151 36.5057 40.2262 35.5921 40.8947C34.678 41.5635 33.5802 41.9499 32.56 41.9499V43.4499ZM38.8725 38.7342L43.6725 24.1342L42.2475 23.6657L37.4475 38.2657L38.8725 38.7342ZM43.6663 24.1522C44.2403 22.5449 44.0285 20.9785 43.1638 19.805C42.3027 18.6364 40.8629 17.9499 39.16 17.9499V19.4499C40.4571 19.4499 41.4173 19.9635 41.9562 20.6948C42.4916 21.4214 42.6797 22.4549 42.2537 23.6477L43.6663 24.1522ZM39.16 17.9499H31.16V19.4499H39.16V17.9499ZM31.16 17.9499C30.4034 17.9499 29.7689 17.3413 29.9025 16.406L28.4175 16.1939C28.1512 18.0585 29.5167 19.4499 31.16 19.4499V17.9499ZM29.901 16.4157L30.901 10.0157L29.419 9.78415L28.419 16.1842L29.901 16.4157ZM30.8921 10.0626C31.3815 7.86065 29.9351 5.50108 27.7972 4.78842L27.3228 6.21145C28.7849 6.69879 29.7385 8.33922 29.4279 9.73724L30.8921 10.0626ZM27.8234 4.79769C26.8263 4.4238 25.7431 4.49706 24.8162 4.81567C23.8944 5.13255 23.0451 5.72024 22.536 6.48391L23.784 7.31596C24.0749 6.87963 24.6256 6.46732 25.3038 6.2342C25.9769 6.00281 26.6937 5.97607 27.2967 6.20218L27.8234 4.79769ZM22.5375 6.48156L14.3375 18.6816L15.5825 19.5183L23.7825 7.31831L22.5375 6.48156ZM5.51001 36.6999V17.0999H4.01001V36.6999H5.51001ZM5.51001 17.0999C5.51001 15.7844 5.795 15.0922 6.21872 14.701C6.65717 14.2963 7.41749 14.0499 8.76001 14.0499V12.5499C7.30253 12.5499 6.06285 12.8036 5.2013 13.5988C4.32502 14.4077 4.01001 15.6154 4.01001 17.0999H5.51001ZM8.76001 14.0499H10.76V12.5499H8.76001V14.0499ZM10.76 14.0499C12.1025 14.0499 12.8628 14.2963 13.3013 14.701C13.725 15.0922 14.01 15.7844 14.01 17.0999H15.51C15.51 15.6154 15.195 14.4077 14.3187 13.5988C13.4572 12.8036 12.2175 12.5499 10.76 12.5499V14.0499ZM14.01 17.0999V36.6999H15.51V17.0999H14.01ZM14.01 36.6999C14.01 38.0154 13.725 38.7077 13.3013 39.0988C12.8628 39.5036 12.1025 39.7499 10.76 39.7499V41.2499C12.2175 41.2499 13.4572 40.9963 14.3187 40.201C15.195 39.3922 15.51 38.1844 15.51 36.6999H14.01ZM10.76 39.7499H8.76001V41.2499H10.76V39.7499ZM8.76001 39.7499C7.41749 39.7499 6.65717 39.5036 6.21872 39.0988C5.795 38.7077 5.51001 38.0154 5.51001 36.6999H4.01001C4.01001 38.1844 4.32502 39.3922 5.2013 40.201C6.06285 40.9963 7.30253 41.2499 8.76001 41.2499V39.7499Z" fill="#292D32"/>
</svg>
