<svg width="34" height="34" viewBox="0 0 34 34" fill="none" xmlns="http://www.w3.org/2000/svg">
<path d="M15.4186 5.16279H4.98191C4.19106 5.16279 3.4326 5.47696 2.87338 6.03618C2.31416 6.59539 2 7.35385 2 8.14471V29.0181C2 29.8089 2.31416 30.5674 2.87338 31.1266C3.4326 31.6858 4.19106 32 4.98191 32H25.8553C26.6461 32 27.4046 31.6858 27.9638 31.1266C28.523 30.5674 28.8372 29.8089 28.8372 29.0181V18.5814M26.6008 2.92636C27.1939 2.33322 27.9984 2 28.8372 2C29.676 2 30.4805 2.33322 31.0736 2.92636C31.6668 3.5195 32 4.32397 32 5.16279C32 6.00162 31.6668 6.80609 31.0736 7.39923L16.9096 21.5633L10.9457 23.0543L12.4367 17.0904L26.6008 2.92636Z" stroke="#AAAAAA" stroke-width="2.5" stroke-linecap="round" stroke-linejoin="round"/>
</svg>
