<svg width="39" height="32" viewBox="0 0 39 32" fill="none" xmlns="http://www.w3.org/2000/svg">
<path d="M25.8636 30V26.8889C25.8636 25.2387 25.1932 23.656 23.9998 22.4891C22.8064 21.3222 21.1877 20.6667 19.5 20.6667H8.36364C6.6759 20.6667 5.05728 21.3222 3.86387 22.4891C2.67045 23.656 2 25.2387 2 26.8889V30M29.0455 9.77778L37 17.5556M37 9.77778L29.0455 17.5556M20.2955 8.22222C20.2955 11.6587 17.4464 14.4444 13.9318 14.4444C10.4173 14.4444 7.56818 11.6587 7.56818 8.22222C7.56818 4.78578 10.4173 2 13.9318 2C17.4464 2 20.2955 4.78578 20.2955 8.22222Z" stroke="#AAAAAA" stroke-width="2.5" stroke-linecap="round" stroke-linejoin="round"/>
</svg>
