<?xml version="1.0" encoding="UTF-8"?>
<svg version="1.1" xmlns="http://www.w3.org/2000/svg" width="500" height="500">
<path d="M0 0 C165 0 330 0 500 0 C500 165 500 330 500 500 C335 500 170 500 0 500 C0 335 0 170 0 0 Z " fill="#FEFEFE" transform="translate(0,0)"/>
<path d="M0 0 C14.81989461 11.71525803 14.81989461 11.71525803 19.58203125 17.68359375 C19.58203125 18.34359375 19.58203125 19.00359375 19.58203125 19.68359375 C20.24203125 19.68359375 20.90203125 19.68359375 21.58203125 19.68359375 C23.81278812 21.93765961 25.6629496 24.53782888 27.58203125 27.05859375 C28.16218994 27.82010742 28.74234863 28.58162109 29.34008789 29.36621094 C35.28414373 37.35259177 40.09948076 45.81005833 44.58203125 54.68359375 C44.90848633 55.32941406 45.23494141 55.97523438 45.57128906 56.640625 C48.39828235 62.31252282 50.74963521 67.36112492 51.58203125 73.68359375 C52.90203125 73.68359375 54.22203125 73.68359375 55.58203125 73.68359375 C55.58203125 74.34359375 55.58203125 75.00359375 55.58203125 75.68359375 C56.34515625 75.95171875 57.10828125 76.21984375 57.89453125 76.49609375 C60.47191743 77.6349388 61.85157989 78.49776046 63.58203125 80.68359375 C63.58203125 81.34359375 63.58203125 82.00359375 63.58203125 82.68359375 C64.41734375 82.99296875 64.41734375 82.99296875 65.26953125 83.30859375 C73.92312197 88.45397202 76.75326044 99.62193809 79.58203125 108.68359375 C79.96748846 110.42696886 80.32394985 112.17713094 80.64453125 113.93359375 C81.27462267 117.42152201 81.27462267 117.42152201 82.58203125 120.68359375 C83.23469843 124.28821764 83.67127939 127.92654873 84.14453125 131.55859375 C84.28093018 132.59894775 84.4173291 133.63930176 84.55786133 134.71118164 C85.44003816 141.7548381 85.99439222 148.58182147 85.58203125 155.68359375 C86.24203125 156.01359375 86.90203125 156.34359375 87.58203125 156.68359375 C88.4670934 174.12120128 88.69206725 191.53854152 88.70703125 208.99609375 C88.71077759 210.49644165 88.71077759 210.49644165 88.71459961 212.02709961 C88.73722361 223.08299566 88.60083677 234.11699764 88.13671875 245.1640625 C88.09797638 246.10252518 88.05923401 247.04098785 88.01931763 248.00788879 C87.82862123 252.11176346 87.55504397 256.14627824 86.98486328 260.21606445 C86.27883291 263.53339689 86.27883291 263.53339689 87.58203125 265.68359375 C87.67299506 270.2267997 87.4360831 274.76834481 87.26953125 279.30859375 C87.23408203 280.56800781 87.19863281 281.82742188 87.16210938 283.125 C86.52452697 301.26279199 86.52452697 301.26279199 81.58203125 306.68359375 C76.18854127 308.92620913 69.14500758 309.73001633 63.58203125 307.68359375 C62.328125 305.62890625 62.328125 305.62890625 61.58203125 303.68359375 C60.92203125 303.68359375 60.26203125 303.68359375 59.58203125 303.68359375 C59.58203125 303.02359375 59.58203125 302.36359375 59.58203125 301.68359375 C58.92203125 301.68359375 58.26203125 301.68359375 57.58203125 301.68359375 C57.43765625 300.56984375 57.29328125 299.45609375 57.14453125 298.30859375 C56.7983109 294.86217328 56.7983109 294.86217328 55.58203125 292.68359375 C55.48472125 291.11176191 55.45126343 289.5357773 55.44921875 287.9609375 C55.44720459 286.96537842 55.44519043 285.96981934 55.44311523 284.9440918 C55.45000366 283.29920776 55.45000366 283.29920776 55.45703125 281.62109375 C55.45968994 280.46714111 55.46234863 279.31318848 55.46508789 278.12426758 C55.51278719 269.03543764 55.73129978 259.95513478 56.01953125 250.87109375 C56.04108276 250.18864594 56.06263428 249.50619812 56.08483887 248.80307007 C56.29408076 242.22529211 56.5125179 235.64784622 56.74365234 229.07080078 C60.41437198 173.33206195 60.41437198 173.33206195 49.58203125 119.68359375 C49.23828125 117.62109375 49.23828125 117.62109375 49.08203125 115.68359375 C48.71449904 112.37580386 48.19200447 109.64933389 46.58203125 106.68359375 C45.2768465 105.64712351 43.94741778 104.63936432 42.58203125 103.68359375 C42.58203125 103.02359375 42.58203125 102.36359375 42.58203125 101.68359375 C36.9388921 102.61796973 32.76894925 103.49667575 28.58203125 107.68359375 C28.25203125 108.34359375 27.92203125 109.00359375 27.58203125 109.68359375 C26.92203125 109.68359375 26.26203125 109.68359375 25.58203125 109.68359375 C25.46601563 110.24949219 25.35 110.81539062 25.23046875 111.3984375 C24.51482804 113.92042435 23.45845574 115.94423112 22.20703125 118.24609375 C19.80590375 122.89611587 18.42138021 127.44153358 17.2578125 132.53125 C17.03480469 133.24152344 16.81179688 133.95179688 16.58203125 134.68359375 C15.92203125 135.01359375 15.26203125 135.34359375 14.58203125 135.68359375 C14.91203125 136.67359375 15.24203125 137.66359375 15.58203125 138.68359375 C15.35921261 141.0660392 15.05613915 143.44135525 14.70703125 145.80859375 C14.5135721 147.15614242 14.32086195 148.50379884 14.12890625 149.8515625 C13.9484375 151.11613281 13.76796875 152.38070312 13.58203125 153.68359375 C13.22148714 156.68159643 12.8981444 159.68051881 12.58203125 162.68359375 C11.92203125 162.68359375 11.26203125 162.68359375 10.58203125 162.68359375 C10.65267792 163.35588516 10.72332458 164.02817657 10.79611206 164.72084045 C11.43971193 171.22769386 11.72971129 177.64355449 11.71484375 184.1796875 C11.71627884 185.61188377 11.71627884 185.61188377 11.71774292 187.07301331 C11.71841793 189.0754503 11.71661152 191.07788958 11.71240234 193.08032227 C11.70705042 196.11023985 11.71236762 199.14000884 11.71875 202.16992188 C11.72141511 210.80763493 11.66875522 219.34570847 10.80029297 227.94750977 C10.3627238 233.43278684 10.52460049 238.93535446 10.58203125 244.43359375 C10.63284399 253.27963003 10.49061466 261.98954706 9.796875 270.80859375 C9.48495363 276.43452096 9.56634689 282.05377605 9.70703125 287.68554688 C9.7853496 293.04165177 9.23207918 297.5672993 7.58203125 302.68359375 C5.51953125 303.99609375 5.51953125 303.99609375 3.58203125 304.68359375 C3.25203125 305.67359375 2.92203125 306.66359375 2.58203125 307.68359375 C-1.79888475 309.37622039 -6.74421301 309.98512638 -11.41796875 309.68359375 C-11.41796875 309.02359375 -11.41796875 308.36359375 -11.41796875 307.68359375 C-12.05734375 307.58046875 -12.69671875 307.47734375 -13.35546875 307.37109375 C-14.37640625 307.03078125 -14.37640625 307.03078125 -15.41796875 306.68359375 C-15.74796875 305.69359375 -16.07796875 304.70359375 -16.41796875 303.68359375 C-17.07796875 303.68359375 -17.73796875 303.68359375 -18.41796875 303.68359375 C-21.09418872 296.33105277 -21.83087284 289.8483712 -21.66796875 282.05859375 C-21.65701172 280.96160156 -21.64605469 279.86460937 -21.63476562 278.734375 C-21.52945718 270.75840511 -21.17596643 262.80142531 -20.77441406 254.8359375 C-20.27057621 243.67289185 -20.38609412 232.51077668 -20.42822266 221.33956909 C-20.46274847 211.29448929 -20.46116048 201.28036007 -19.91796875 191.24609375 C-19.87317383 190.40449707 -19.82837891 189.56290039 -19.78222656 188.69580078 C-19.73936523 187.89384277 -19.69650391 187.09188477 -19.65234375 186.265625 C-18.94651379 173.01450768 -19.53842073 160.76479868 -22.04199219 147.72314453 C-22.58753176 144.76376949 -22.99891281 141.7881525 -23.41796875 138.80859375 C-25.29809459 125.56674469 -25.29809459 125.56674469 -32.41796875 114.68359375 C-32.41796875 114.02359375 -32.41796875 113.36359375 -32.41796875 112.68359375 C-35.05796875 112.35359375 -37.69796875 112.02359375 -40.41796875 111.68359375 C-46.02272189 121.25376511 -48.73342693 129.41615345 -49.98828125 140.390625 C-50.41796875 143.68359375 -50.41796875 143.68359375 -51.41796875 146.68359375 C-51.71184886 149.48255732 -51.96111539 152.26882917 -52.171875 155.07421875 C-52.23713882 155.91916901 -52.30240265 156.76411926 -52.36964417 157.63467407 C-52.57947123 160.40055766 -52.78097807 163.16694636 -52.98046875 165.93359375 C-53.04933289 166.87189026 -53.11819702 167.81018677 -53.18914795 168.7769165 C-54.35534795 184.90309852 -54.74123052 200.88773571 -54.35205078 217.05029297 C-54.4125892 219.46869049 -54.79913236 221.36460472 -55.41796875 223.68359375 C-55.46569383 226.69027393 -55.45995862 229.67800286 -55.41796875 232.68359375 C-55.33388576 243.81312372 -55.6398563 254.91794346 -55.99273682 266.04016113 C-56.31880366 276.36212248 -56.56034943 286.66172876 -56.20507812 296.98828125 C-56.09916132 302.56963652 -57.18227241 306.55670894 -59.41796875 311.68359375 C-60.07796875 311.68359375 -60.73796875 311.68359375 -61.41796875 311.68359375 C-61.64484375 312.30234375 -61.87171875 312.92109375 -62.10546875 313.55859375 C-63.90344757 316.46960708 -65.10339665 316.83732002 -68.41796875 317.68359375 C-74.11652805 318.28288873 -78.54512816 318.01138732 -83.41796875 314.68359375 C-85.52628134 311.71278964 -85.41796875 310.49244552 -85.41796875 306.68359375 C-86.07796875 306.68359375 -86.73796875 306.68359375 -87.41796875 306.68359375 C-87.41796875 300.08359375 -87.41796875 293.48359375 -87.41796875 286.68359375 C-93.68796875 286.68359375 -99.95796875 286.68359375 -106.41796875 286.68359375 C-106.47984375 288.66359375 -106.54171875 290.64359375 -106.60546875 292.68359375 C-107.0480349 298.6387118 -108.1735318 303.30693135 -112.41796875 307.68359375 C-113.07796875 307.68359375 -113.73796875 307.68359375 -114.41796875 307.68359375 C-114.41796875 308.34359375 -114.41796875 309.00359375 -114.41796875 309.68359375 C-119.08870454 312.60280362 -124.27448121 313.15516101 -129.54296875 311.99609375 C-134.59493966 309.68975921 -137.69138797 308.27010426 -140.078125 303.05859375 C-141.58802956 298.72318546 -141.79975899 294.86406014 -141.66796875 290.30859375 C-141.65044556 289.11266602 -141.65044556 289.11266602 -141.63256836 287.89257812 C-141.58302055 285.15525605 -141.50356796 282.42002201 -141.41796875 279.68359375 C-141.38654785 278.61463867 -141.35512695 277.54568359 -141.32275391 276.44433594 C-141.15245799 270.88773197 -140.9596218 265.33199871 -140.734375 259.77734375 C-140.67938843 258.41125977 -140.67938843 258.41125977 -140.62329102 257.01757812 C-140.51016459 255.18065247 -140.38066487 253.34361671 -140.17993164 251.51419067 C-139.19020186 242.32373222 -139.2729059 233.15703368 -139.28515625 223.92578125 C-139.28448159 222.12785835 -139.28351022 220.32993553 -139.28225708 218.53201294 C-139.28079152 214.78858561 -139.28290024 211.04518232 -139.28759766 207.30175781 C-139.29333573 202.49417176 -139.2899832 197.68664103 -139.28402519 192.87905693 C-139.28042377 189.17833025 -139.28155551 185.47761687 -139.28415298 181.7768898 C-139.28482129 180.00258503 -139.28399719 178.22827906 -139.28167343 176.45397568 C-139.27914936 173.98865259 -139.28298207 171.52342164 -139.28857422 169.05810547 C-139.28553787 167.95330589 -139.28553787 167.95330589 -139.28244019 166.82618713 C-139.00077565 163.46973521 -139.00077565 163.46973521 -140.41796875 160.68359375 C-140.49023377 158.83071873 -140.50178095 156.97525497 -140.48046875 155.12109375 C-140.47144531 154.10917969 -140.46242187 153.09726562 -140.453125 152.0546875 C-140.43572266 150.88099609 -140.43572266 150.88099609 -140.41796875 149.68359375 C-141.07796875 149.68359375 -141.73796875 149.68359375 -142.41796875 149.68359375 C-142.59972656 148.84957031 -142.78148437 148.01554688 -142.96875 147.15625 C-145.51833398 134.25716883 -145.51833398 134.25716883 -151.41796875 122.68359375 C-152.40796875 122.35359375 -153.39796875 122.02359375 -154.41796875 121.68359375 C-155.07796875 120.69359375 -155.73796875 119.70359375 -156.41796875 118.68359375 C-158.47722014 117.95976908 -158.47722014 117.95976908 -160.41796875 117.68359375 C-160.41796875 116.69359375 -160.41796875 115.70359375 -160.41796875 114.68359375 C-165.69796875 114.35359375 -170.97796875 114.02359375 -176.41796875 113.68359375 C-175.42796875 117.14859375 -175.42796875 117.14859375 -174.41796875 120.68359375 C-172.92848968 126.77942475 -172.18555496 132.40842132 -172.41796875 138.68359375 C-171.75796875 138.68359375 -171.09796875 138.68359375 -170.41796875 138.68359375 C-170.36898437 139.94171875 -170.32 141.19984375 -170.26953125 142.49609375 C-169.87115371 151.8847088 -169.27600936 161.11717488 -167.91796875 170.421875 C-166.25581291 183.37250762 -166.26828269 196.39486635 -166.28515625 209.42578125 C-166.28448061 211.28850314 -166.28350844 213.15122494 -166.28225708 215.01394653 C-166.28079451 218.88821261 -166.28288929 222.76245541 -166.28759766 226.63671875 C-166.29331817 231.5824053 -166.28999214 236.52803784 -166.28402519 241.47372246 C-166.2804009 245.30858767 -166.28156634 249.14344021 -166.28415298 252.97830582 C-166.28481584 254.80182019 -166.28401647 256.62533574 -166.28167343 258.44884872 C-166.27911336 260.99831932 -166.28303332 263.54770374 -166.28857422 266.09716797 C-166.28654999 266.83605759 -166.28452576 267.5749472 -166.28244019 268.33622742 C-166.30050852 272.85934442 -166.63553051 277.26557558 -167.19578075 281.75435448 C-167.45801799 284.03133783 -167.50269984 286.25262194 -167.4453125 288.54296875 C-167.43306641 289.34863281 -167.42082031 290.15429688 -167.40820312 290.984375 C-167.37270871 292.63289319 -167.33357867 294.28133667 -167.29101562 295.9296875 C-167.2215755 301.00290107 -167.19811204 305.37124301 -170.91796875 309.24609375 C-171.66046875 309.95765625 -171.66046875 309.95765625 -172.41796875 310.68359375 C-173.59371586 312.78349027 -173.59371586 312.78349027 -174.41796875 314.68359375 C-175.07796875 314.68359375 -175.73796875 314.68359375 -176.41796875 314.68359375 C-176.41796875 315.34359375 -176.41796875 316.00359375 -176.41796875 316.68359375 C-180.70796875 316.68359375 -184.99796875 316.68359375 -189.41796875 316.68359375 C-189.41796875 316.02359375 -189.41796875 315.36359375 -189.41796875 314.68359375 C-191.72796875 314.35359375 -194.03796875 314.02359375 -196.41796875 313.68359375 C-196.41796875 313.02359375 -196.41796875 312.36359375 -196.41796875 311.68359375 C-197.07796875 311.68359375 -197.73796875 311.68359375 -198.41796875 311.68359375 C-209.54685561 295.65799668 -203.14431546 264.13782269 -202.41796875 245.68359375 C-201.75796875 245.68359375 -201.09796875 245.68359375 -200.41796875 245.68359375 C-200.41796875 227.20359375 -200.41796875 208.72359375 -200.41796875 189.68359375 C-201.07796875 189.68359375 -201.73796875 189.68359375 -202.41796875 189.68359375 C-202.41796875 181.76359375 -202.41796875 173.84359375 -202.41796875 165.68359375 C-203.07796875 165.68359375 -203.73796875 165.68359375 -204.41796875 165.68359375 C-206.20628734 156.21508549 -206.6568653 147.27927168 -206.41796875 137.68359375 C-207.07796875 137.68359375 -207.73796875 137.68359375 -208.41796875 137.68359375 C-208.55895996 137.05267822 -208.69995117 136.4217627 -208.84521484 135.77172852 C-209.48582184 132.92782169 -210.1392103 130.08700476 -210.79296875 127.24609375 C-211.0146875 126.25287109 -211.23640625 125.25964844 -211.46484375 124.23632812 C-211.68398437 123.29208984 -211.903125 122.34785156 -212.12890625 121.375 C-212.32790527 120.50045166 -212.5269043 119.62590332 -212.73193359 118.72485352 C-213.2156754 116.49084233 -213.2156754 116.49084233 -215.41796875 115.68359375 C-219.56822154 114.99188495 -221.93736359 115.71363345 -225.29296875 118.05859375 C-231.92801908 123.45356724 -237.16438075 129.1153806 -238.41796875 137.68359375 C-239.07796875 138.01359375 -239.73796875 138.34359375 -240.41796875 138.68359375 C-241.47212055 141.84604916 -241.73072547 144.55307593 -241.98046875 147.87109375 C-242.06425781 148.95777344 -242.14804688 150.04445313 -242.234375 151.1640625 C-242.32525391 152.41123047 -242.32525391 152.41123047 -242.41796875 153.68359375 C-243.07796875 153.68359375 -243.73796875 153.68359375 -244.41796875 153.68359375 C-244.41796875 159.62359375 -244.41796875 165.56359375 -244.41796875 171.68359375 C-246.46177734 171.75707031 -246.46177734 171.75707031 -248.546875 171.83203125 C-250.3580914 171.90710758 -252.16928838 171.98265327 -253.98046875 172.05859375 C-255.32334961 172.105 -255.32334961 172.105 -256.69335938 172.15234375 C-265.12140666 172.21514661 -265.12140666 172.21514661 -272.41796875 175.68359375 C-275.41796875 175.80859375 -275.41796875 175.80859375 -278.41796875 175.68359375 C-281.40652563 172.69503687 -279.72872286 163.15514557 -279.74365234 159.12280273 C-279.65100508 149.01802844 -279.20123092 137.35848701 -273.41796875 128.68359375 C-272.94028486 127.15390082 -272.50687704 125.61004911 -272.10546875 124.05859375 C-270.60859504 118.85772132 -268.49991824 114.14886051 -265.41796875 109.68359375 C-264.75796875 109.35359375 -264.09796875 109.02359375 -263.41796875 108.68359375 C-262.76583583 106.6589612 -262.76583583 106.6589612 -262.41796875 104.68359375 C-261.75796875 104.68359375 -261.09796875 104.68359375 -260.41796875 104.68359375 C-258.82944458 101.73761897 -257.8337187 98.90641096 -256.97265625 95.67578125 C-248.38241318 64.33572402 -234.16292898 38.89934229 -211.41796875 15.68359375 C-210.85424561 15.09795654 -210.29052246 14.51231934 -209.7097168 13.90893555 C-198.06967844 1.97966286 -184.20415692 -6.81302058 -169.41796875 -14.31640625 C-168.2990625 -14.89003906 -167.18015625 -15.46367188 -166.02734375 -16.0546875 C-112.98968619 -41.84058383 -46.86328013 -35.93373921 0 0 Z " fill="#A2C7D0" transform="translate(370.41796875,106.31640625)"/>
<path d="M0 0 C1.30893534 0.38725898 2.62149099 0.7625065 3.9375 1.125 C4.948125 1.41375 5.95875 1.7025 7 2 C7 2.66 7 3.32 7 4 C8.1446875 4.4021875 8.1446875 4.4021875 9.3125 4.8125 C11.88988618 5.95134505 13.26954864 6.81416671 15 9 C15 9.66 15 10.32 15 11 C15.556875 11.20625 16.11375 11.4125 16.6875 11.625 C25.34109072 16.77037827 28.17122919 27.93834434 31 37 C31.38545721 38.74337511 31.7419186 40.49353719 32.0625 42.25 C32.69259142 45.73792826 32.69259142 45.73792826 34 49 C34.65266718 52.60462389 35.08924814 56.24295498 35.5625 59.875 C35.69889893 60.915354 35.83529785 61.95570801 35.97583008 63.02758789 C36.85800691 70.07124435 37.41236097 76.89822772 37 84 C37.66 84.33 38.32 84.66 39 85 C39.88506215 102.43760753 40.110036 119.85494777 40.125 137.3125 C40.12874634 138.8128479 40.12874634 138.8128479 40.13256836 140.34350586 C40.15519236 151.39940191 40.01880552 162.43340389 39.5546875 173.48046875 C39.51594513 174.41893143 39.47720276 175.3573941 39.43728638 176.32429504 C39.24658998 180.42816971 38.97301272 184.46268449 38.40283203 188.5324707 C37.69680166 191.84980314 37.69680166 191.84980314 39 194 C39.09096381 198.54320595 38.85405185 203.08475106 38.6875 207.625 C38.65205078 208.88441406 38.61660156 210.14382813 38.58007812 211.44140625 C37.94249572 229.57919824 37.94249572 229.57919824 33 235 C27.60651002 237.24261538 20.56297633 238.04642258 15 236 C13.74609375 233.9453125 13.74609375 233.9453125 13 232 C12.34 232 11.68 232 11 232 C11 231.34 11 230.68 11 230 C10.34 230 9.68 230 9 230 C8.855625 228.88625 8.71125 227.7725 8.5625 226.625 C8.21627965 223.17857953 8.21627965 223.17857953 7 221 C6.90269 219.42816816 6.86923218 217.85218355 6.8671875 216.27734375 C6.86517334 215.28178467 6.86315918 214.28622559 6.86108398 213.26049805 C6.86567627 212.16390869 6.87026855 211.06731934 6.875 209.9375 C6.87898804 208.20657104 6.87898804 208.20657104 6.88305664 206.44067383 C6.93075594 197.35184389 7.14926853 188.27154103 7.4375 179.1875 C7.46982727 178.16382828 7.46982727 178.16382828 7.50280762 177.11947632 C7.71204951 170.54169836 7.93048665 163.96425247 8.16162109 157.38720703 C11.83234073 101.6484682 11.83234073 101.6484682 1 48 C0.65625 45.9375 0.65625 45.9375 0.5 44 C0.13246779 40.69221011 -0.39002678 37.96574014 -2 35 C-3.30518475 33.96352976 -4.63461347 32.95577057 -6 32 C-6 31.34 -6 30.68 -6 30 C-11.64313915 30.93437598 -15.813082 31.813082 -20 36 C-20.495 36.99 -20.495 36.99 -21 38 C-21.66 38 -22.32 38 -23 38 C-23.17402344 38.84884766 -23.17402344 38.84884766 -23.3515625 39.71484375 C-24.06720321 42.2368306 -25.12357551 44.26063737 -26.375 46.5625 C-28.7761275 51.21252212 -30.16065104 55.75793983 -31.32421875 60.84765625 C-31.65873047 61.91306641 -31.65873047 61.91306641 -32 63 C-32.99 63.495 -32.99 63.495 -34 64 C-33.67 64.99 -33.34 65.98 -33 67 C-33.22281864 69.38244545 -33.5258921 71.7577615 -33.875 74.125 C-34.06845915 75.47254867 -34.2611693 76.82020509 -34.453125 78.16796875 C-34.72382813 80.06482422 -34.72382813 80.06482422 -35 82 C-35.36054411 84.99800268 -35.68388685 87.99692506 -36 91 C-36.66 91 -37.32 91 -38 91 C-37.92935333 91.67229141 -37.85870667 92.34458282 -37.78591919 93.0372467 C-37.14231932 99.54410011 -36.85231996 105.95996074 -36.8671875 112.49609375 C-36.86623077 113.45089127 -36.86527405 114.40568878 -36.86428833 115.38941956 C-36.86361332 117.39185655 -36.86541973 119.39429583 -36.86962891 121.39672852 C-36.87498083 124.4266461 -36.86966363 127.45641509 -36.86328125 130.48632812 C-36.86061614 139.12404118 -36.91327603 147.66211472 -37.78173828 156.26391602 C-38.21930745 161.74919309 -38.05743076 167.25176071 -38 172.75 C-37.94918726 181.59603628 -38.09141659 190.30595331 -38.78515625 199.125 C-39.09707762 204.75092721 -39.01568436 210.3701823 -38.875 216.00195312 C-38.79668165 221.35805802 -39.34995207 225.88370555 -41 231 C-43.0625 232.3125 -43.0625 232.3125 -45 233 C-45.33 233.99 -45.66 234.98 -46 236 C-50.380916 237.69262664 -55.32624426 238.30153263 -60 238 C-60 237.34 -60 236.68 -60 236 C-60.9590625 235.8453125 -60.9590625 235.8453125 -61.9375 235.6875 C-62.9584375 235.3471875 -62.9584375 235.3471875 -64 235 C-64.33 234.01 -64.66 233.02 -65 232 C-65.66 232 -66.32 232 -67 232 C-69.67621997 224.64745902 -70.41290409 218.16477745 -70.25 210.375 C-70.23356445 208.72951172 -70.23356445 208.72951172 -70.21679688 207.05078125 C-70.11148843 199.07481136 -69.75799768 191.11783156 -69.35644531 183.15234375 C-68.85260746 171.9892981 -68.96812537 160.82718293 -69.01025391 149.65597534 C-69.04477972 139.61089554 -69.04319173 129.59676632 -68.5 119.5625 C-68.45520508 118.72090332 -68.41041016 117.87930664 -68.36425781 117.01220703 C-68.32139648 116.21024902 -68.27853516 115.40829102 -68.234375 114.58203125 C-67.52854504 101.33091393 -68.12045198 89.08120493 -70.62402344 76.03955078 C-71.16956301 73.08017574 -71.58094406 70.10455875 -72 67.125 C-73.88012584 53.88315094 -73.88012584 53.88315094 -81 43 C-81 42.34 -81 41.68 -81 41 C-83.64 40.67 -86.28 40.34 -89 40 C-94.60475314 49.57017136 -97.31545818 57.7325597 -98.5703125 68.70703125 C-99 72 -99 72 -100 75 C-100.29388011 77.79896357 -100.54314664 80.58523542 -100.75390625 83.390625 C-100.81917007 84.23557526 -100.8844339 85.08052551 -100.95167542 85.95108032 C-101.16150248 88.71696391 -101.36300932 91.48335261 -101.5625 94.25 C-101.6657962 95.65744476 -101.6657962 95.65744476 -101.7711792 97.09332275 C-102.9373792 113.21950477 -103.32326177 129.20414196 -102.93408203 145.36669922 C-102.99462045 147.78509674 -103.38116361 149.68101097 -104 152 C-104.04772508 155.00668018 -104.04198987 157.99440911 -104 161 C-103.91591701 172.12952997 -104.22188755 183.23434971 -104.57476807 194.35656738 C-104.90083491 204.67852873 -105.14238068 214.97813501 -104.78710938 225.3046875 C-104.68119257 230.88604277 -105.76430366 234.87311519 -108 240 C-108.66 240 -109.32 240 -110 240 C-110.226875 240.61875 -110.45375 241.2375 -110.6875 241.875 C-112.48547882 244.78601333 -113.6854279 245.15372627 -117 246 C-122.6985593 246.59929498 -127.12715941 246.32779357 -132 243 C-134.10831259 240.02919589 -134 238.80885177 -134 235 C-134.66 235 -135.32 235 -136 235 C-136.02323754 225.37665489 -136.04097305 215.75331954 -136.05181217 206.12995243 C-136.05701612 201.66076219 -136.06406828 197.19159125 -136.07543945 192.72241211 C-136.08635713 188.40412139 -136.09229556 184.08584916 -136.09487724 179.7675457 C-136.09671555 178.12544909 -136.10030514 176.48335341 -136.10573006 174.84126472 C-136.13115766 166.82072324 -136.04449881 158.96718486 -135 151 C-134.9380202 148.9878257 -134.91283032 146.97391497 -134.9375 144.9609375 C-134.94595947 143.89335205 -134.95441895 142.8257666 -134.96313477 141.72583008 C-134.97530029 140.62005615 -134.98746582 139.51428223 -135 138.375 C-135.05259905 128.84791413 -134.7976437 119.49523801 -134 110 C-133.83024067 107.33347265 -133.66283917 104.66694378 -133.5 102 C-133.21040445 97.28372956 -132.69714357 92.67304046 -132 88 C-131.74315413 85.73832943 -131.5101655 83.47556582 -131.28125 81.2109375 C-131 79 -131 79 -130.51147461 76.66625977 C-130.02680939 74.13975432 -129.74201409 71.69146213 -129.53515625 69.12890625 C-129.45716797 68.22462891 -129.37917969 67.32035156 -129.29882812 66.38867188 C-129.14162726 64.50875743 -128.98796497 62.62854365 -128.83789062 60.74804688 C-128.40985917 55.85874444 -127.7434392 51.62601796 -126 47 C-125.72913691 45.6080647 -125.47741582 44.21219023 -125.25 42.8125 C-123.48258674 34.62440575 -118.92810467 27.4520784 -113.19921875 21.4375 C-111.76104204 19.89128761 -111.76104204 19.89128761 -111 17 C-109.4765625 15.83203125 -109.4765625 15.83203125 -107.625 14.8125 C-107.01914062 14.46832031 -106.41328125 14.12414062 -105.7890625 13.76953125 C-104 13 -104 13 -101 13 C-101 12.34 -101 11.68 -101 11 C-93.57191507 7.70961257 -87.99155896 6.27311739 -80 8 C-78.71222656 8.24943359 -78.71222656 8.24943359 -77.3984375 8.50390625 C-71.72373418 9.8668637 -68.46313007 11.89629432 -64.58984375 16.234375 C-63.09131023 17.89859404 -61.56769021 19.24185759 -59.8125 20.625 C-57.12858718 22.89141527 -55.08881303 25.1881363 -53 28 C-49.67098753 25.78065836 -49.24976756 24.65316671 -48 21 C-47.34 21 -46.68 21 -46 21 C-45.773125 20.443125 -45.54625 19.88625 -45.3125 19.3125 C-43.63281165 16.3530491 -41.45866715 14.33873216 -39 12 C-38.443125 11.401875 -37.88625 10.80375 -37.3125 10.1875 C-36 9 -36 9 -34 9 C-34 8.34 -34 7.68 -34 7 C-23.60964844 1.53139392 -11.65960863 -4.48446486 0 0 Z " fill="#393A3A" transform="translate(419,178)"/>
<path d="M0 0 C0.99 0.99 0.99 0.99 2 2 C3.051875 2.268125 4.10375 2.53625 5.1875 2.8125 C9.72616134 4.2261814 12.33232538 6.0059799 16 9 C16 9.66 16 10.32 16 11 C16.598125 11.268125 17.19625 11.53625 17.8125 11.8125 C20 13 20 13 21.375 14.4375 C23.02196301 16.23305286 23.02196301 16.23305286 25.9375 17.0625 C29.9979884 19.63138042 30.53262733 22.23166336 32.06640625 26.6484375 C32.88120508 29.1536542 32.88120508 29.1536542 35.0625 31.0625 C37.67101832 33.67101832 38.29900464 36.35378571 39.34765625 39.83984375 C39.98378137 42.08728185 39.98378137 42.08728185 41.0625 44.5 C43.03839192 49.76904511 44.36447152 55.35069152 44 61 C44.66 61 45.32 61 46 61 C47.60614551 69.08808989 48.26305952 76.7574683 48 85 C48.66 85 49.32 85 50 85 C50.02312376 95.28304538 50.04091525 105.56608462 50.05181217 115.84915066 C50.05704093 120.6234828 50.06413844 125.39779721 50.07543945 130.17211914 C50.0862686 134.77566262 50.09227689 139.37918899 50.09487724 143.98274422 C50.09673144 145.74309623 50.10035196 147.50344726 50.10573006 149.26379204 C50.11294086 151.72072277 50.11399093 154.17758195 50.11352539 156.63452148 C50.11712067 157.36963455 50.12071594 158.10474762 50.12442017 158.86213684 C50.11405216 163.88594784 50.11405216 163.88594784 49 165 C48.12982015 169.90422645 47.84510875 174.689995 47.75390625 179.6640625 C47.72094128 181.13151579 47.68773013 182.59896356 47.65429688 184.06640625 C47.60725279 186.3367099 47.56281419 188.60699566 47.52319336 190.87744141 C46.99990275 219.57382112 46.99990275 219.57382112 40 227 C39.34 227 38.68 227 38 227 C38 227.66 38 228.32 38 229 C33.32926421 231.91920987 28.14348754 232.47156726 22.875 231.3125 C17.82302909 229.00616546 14.72658078 227.58651051 12.33984375 222.375 C10.82993919 218.03959171 10.61820976 214.18046639 10.75 209.625 C10.76168213 208.82771484 10.77336426 208.03042969 10.78540039 207.20898438 C10.8349482 204.4716623 10.91440079 201.73642826 11 199 C11.0314209 197.93104492 11.0628418 196.86208984 11.09521484 195.76074219 C11.26551076 190.20413822 11.45834695 184.64840496 11.68359375 179.09375 C11.72025146 178.18302734 11.75690918 177.27230469 11.79467773 176.33398438 C11.90780416 174.49705872 12.03730388 172.66002296 12.23803711 170.83059692 C13.22776689 161.64013847 13.14506285 152.47343993 13.1328125 143.2421875 C13.13348716 141.4442646 13.13445853 139.64634178 13.13571167 137.84841919 C13.13717723 134.10499186 13.13506851 130.36158857 13.13037109 126.61816406 C13.12463302 121.81057801 13.12798555 117.00304728 13.13394356 112.19546318 C13.13754498 108.4947365 13.13641324 104.79402312 13.13381577 101.09329605 C13.13314746 99.31899128 13.13397156 97.54468531 13.13629532 95.77038193 C13.13881939 93.30505884 13.13498668 90.83982789 13.12939453 88.37451172 C13.13243088 87.26971214 13.13243088 87.26971214 13.13552856 86.14259338 C13.4171931 82.78614146 13.4171931 82.78614146 12 80 C11.92773498 78.14712498 11.9161878 76.29166122 11.9375 74.4375 C11.94652344 73.42558594 11.95554688 72.41367187 11.96484375 71.37109375 C11.98224609 70.19740234 11.98224609 70.19740234 12 69 C11.34 69 10.68 69 10 69 C9.72736328 67.74896484 9.72736328 67.74896484 9.44921875 66.47265625 C6.89963477 53.57357508 6.89963477 53.57357508 1 42 C-0.485 41.505 -0.485 41.505 -2 41 C-2.66 40.01 -3.32 39.02 -4 38 C-6.05925139 37.27617533 -6.05925139 37.27617533 -8 37 C-8 36.01 -8 35.02 -8 34 C-13.28 33.67 -18.56 33.34 -24 33 C-23.34 35.31 -22.68 37.62 -22 40 C-20.51052093 46.095831 -19.76758621 51.72482757 -20 58 C-19.34 58 -18.68 58 -18 58 C-17.95101562 59.258125 -17.90203125 60.51625 -17.8515625 61.8125 C-17.45318496 71.20111505 -16.85804061 80.43358113 -15.5 89.73828125 C-13.83784416 102.68891387 -13.85031394 115.7112726 -13.8671875 128.7421875 C-13.86651186 130.60490939 -13.86553969 132.46763119 -13.86428833 134.33035278 C-13.86282576 138.20461886 -13.86492054 142.07886166 -13.86962891 145.953125 C-13.87534942 150.89881155 -13.87202339 155.84444409 -13.86605644 160.79012871 C-13.86243215 164.62499392 -13.86359759 168.45984646 -13.86618423 172.29471207 C-13.86684709 174.11822644 -13.86604772 175.94174199 -13.86370468 177.76525497 C-13.86114461 180.31472557 -13.86506457 182.86410999 -13.87060547 185.41357422 C-13.86858124 186.15246384 -13.86655701 186.89135345 -13.86447144 187.65263367 C-13.88253977 192.17575067 -14.21756176 196.58198183 -14.777812 201.07076073 C-15.04004924 203.34774408 -15.08473109 205.56902819 -15.02734375 207.859375 C-15.01509766 208.66503906 -15.00285156 209.47070312 -14.99023438 210.30078125 C-14.95473996 211.94929944 -14.91560992 213.59774292 -14.87304688 215.24609375 C-14.80360675 220.31930732 -14.78014329 224.68764926 -18.5 228.5625 C-18.995 229.036875 -19.49 229.51125 -20 230 C-21.17574711 232.09989652 -21.17574711 232.09989652 -22 234 C-22.66 234 -23.32 234 -24 234 C-24 234.66 -24 235.32 -24 236 C-28.29 236 -32.58 236 -37 236 C-37 235.34 -37 234.68 -37 234 C-39.31 233.67 -41.62 233.34 -44 233 C-44 232.34 -44 231.68 -44 231 C-44.66 231 -45.32 231 -46 231 C-57.12888686 214.97440293 -50.72634671 183.45422894 -50 165 C-49.34 165 -48.68 165 -48 165 C-48 146.52 -48 128.04 -48 109 C-48.66 109 -49.32 109 -50 109 C-50 101.08 -50 93.16 -50 85 C-50.66 85 -51.32 85 -52 85 C-53.78831859 75.53149174 -54.23889655 66.59567793 -54 57 C-54.66 57 -55.32 57 -56 57 C-56.14099121 56.36908447 -56.28198242 55.73816895 -56.42724609 55.08813477 C-57.06785309 52.24422794 -57.72124155 49.40341101 -58.375 46.5625 C-58.59671875 45.56927734 -58.8184375 44.57605469 -59.046875 43.55273438 C-59.26601562 42.60849609 -59.48515625 41.66425781 -59.7109375 40.69140625 C-59.90993652 39.81685791 -60.10893555 38.94230957 -60.31396484 38.04125977 C-60.79770665 35.80724858 -60.79770665 35.80724858 -63 35 C-67.15025279 34.3082912 -69.51939484 35.0300397 -72.875 37.375 C-79.51005033 42.76997349 -84.746412 48.43178685 -86 57 C-86.99 57.495 -86.99 57.495 -88 58 C-89.0541518 61.16245541 -89.31275672 63.86948218 -89.5625 67.1875 C-89.64628906 68.27417969 -89.73007813 69.36085938 -89.81640625 70.48046875 C-89.87699219 71.31191406 -89.93757813 72.14335937 -90 73 C-90.66 73 -91.32 73 -92 73 C-92 78.94 -92 84.88 -92 91 C-94.04380859 91.07347656 -94.04380859 91.07347656 -96.12890625 91.1484375 C-97.94012265 91.22351383 -99.75131963 91.29905952 -101.5625 91.375 C-102.45775391 91.4059375 -103.35300781 91.436875 -104.27539062 91.46875 C-112.70343791 91.53155286 -112.70343791 91.53155286 -120 95 C-123 95.125 -123 95.125 -126 95 C-128.98855688 92.01144312 -127.31075411 82.47155182 -127.32568359 78.43920898 C-127.23303633 68.33443469 -126.78326217 56.67489326 -121 48 C-120.52231611 46.47030707 -120.08890829 44.92645536 -119.6875 43.375 C-118.19062629 38.17412757 -116.08194949 33.46526676 -113 29 C-112.34 28.67 -111.68 28.34 -111 28 C-110.34786708 25.97536745 -110.34786708 25.97536745 -110 24 C-109.34 24 -108.68 24 -108 24 C-107.731875 23.401875 -107.46375 22.80375 -107.1875 22.1875 C-106.00101202 20.00186425 -104.7416583 18.7416583 -103 17 C-102.72027344 16.37609375 -102.44054687 15.7521875 -102.15234375 15.109375 C-100.78968137 12.61500997 -99.34114444 11.43034115 -97.0625 9.75 C-96.37285156 9.22921875 -95.68320313 8.7084375 -94.97265625 8.171875 C-93 7 -93 7 -90 7 C-90 6.34 -90 5.68 -90 5 C-83.13065465 -0.49547628 -73.80970401 -0.20599789 -65.4375 -0.3125 C-64.64649902 -0.33014404 -63.85549805 -0.34778809 -63.04052734 -0.3659668 C-57.89911046 -0.36010854 -53.80833991 0.55767101 -48.99291992 2.32983398 C-46.57707844 3.14221728 -44.47693277 3.30842537 -41.9375 3.1875 C-40.638125 3.125625 -39.33875 3.06375 -38 3 C-38 2.34 -38 1.68 -38 1 C-26.53199048 -3.64919305 -11.82571365 -2.9887139 0 0 Z " fill="#FD864F" transform="translate(218,187)"/>
<path d="M0 0 C3.29747407 2.19831605 3.41198983 2.42070267 4.16796875 6.02734375 C4.33876953 6.81947266 4.50957031 7.61160156 4.68554688 8.42773438 C4.85119141 9.25595703 5.01683594 10.08417969 5.1875 10.9375 C5.36474609 11.76185547 5.54199219 12.58621094 5.72460938 13.43554688 C6.41292891 16.70705787 7 19.64569424 7 23 C7.66 23 8.32 23 9 23 C9.06058594 24.04800781 9.12117188 25.09601563 9.18359375 26.17578125 C9.26801738 27.55470048 9.35266447 28.93360605 9.4375 30.3125 C9.47681641 31.00279297 9.51613281 31.69308594 9.55664062 32.40429688 C9.74927415 35.47161535 10.02322717 38.06968152 11 41 C11.06802967 42.72795352 11.08495645 44.45835365 11.0625 46.1875 C11.05347656 47.08855469 11.04445313 47.98960937 11.03515625 48.91796875 C11.02355469 49.60503906 11.01195312 50.29210937 11 51 C11.66 51 12.32 51 13 51 C13 58.92 13 66.84 13 75 C13.66 75 14.32 75 15 75 C15 93.48 15 111.96 15 131 C14.34 131 13.68 131 13 131 C13 133.31 13 135.62 13 138 C10.73374997 136.98409482 9.23066768 136.29657273 7.6875 134.3125 C5.93162892 132.71322577 5.93162892 132.71322577 2.8125 132.625 C-1.38766982 133.34885905 -2.95421388 136.23088489 -5.3125 139.5625 C-5.96863281 140.57441406 -6.62476563 141.58632813 -7.30078125 142.62890625 C-7.86152344 143.41136719 -8.42226562 144.19382812 -9 145 C-9.66 145 -10.32 145 -11 145 C-11 145.66 -11 146.32 -11 147 C-14.50238575 149.5862813 -18.26809713 151.76189925 -22 154 C-22.969375 154.598125 -23.93875 155.19625 -24.9375 155.8125 C-37.63871632 160.73746143 -51.47629392 159.83541281 -63.890625 154.58203125 C-77.14415948 147.83871283 -85.01317531 138.4552373 -91 125 C-96.35132715 108.53147913 -93.7600358 94.30536705 -86 79 C-85.34 79 -84.68 79 -84 79 C-83.835 78.319375 -83.67 77.63875 -83.5 76.9375 C-79.73707142 69.56843153 -71.290954 64.48543167 -64 61 C-61.62439805 60.41375569 -59.44885882 60.20407157 -57 60 C-56.34 59.34 -55.68 58.68 -55 58 C-49.61488088 56.64947328 -44.13727211 56.88638763 -38.625 56.9375 C-37.23474609 56.94426758 -37.23474609 56.94426758 -35.81640625 56.95117188 C-33.54424272 56.96288406 -31.27211273 56.98081706 -29 57 C-29 51.06 -29 45.12 -29 39 C-28.34 39 -27.68 39 -27 39 C-27.02320312 38.18015625 -27.04640625 37.3603125 -27.0703125 36.515625 C-27.08835937 35.43796875 -27.10640625 34.3603125 -27.125 33.25 C-27.14820312 32.18265625 -27.17140625 31.1153125 -27.1953125 30.015625 C-27.00487687 27.07529894 -26.52670104 25.47638122 -25 23 C-24.34 23 -23.68 23 -23 23 C-23.0825 22.1234375 -23.165 21.246875 -23.25 20.34375 C-22.74018349 13.52495414 -16.61544083 8.46464064 -11.83203125 3.95703125 C-7.9532233 0.79846617 -5.17950973 -0.96362972 0 0 Z " fill="#A2C7D0" transform="translate(155,221)"/>
<path d="M0 0 C3.63276649 0.97464467 5.12051111 2.86982051 7.5625 5.6875 C8.23023438 6.42871094 8.89796875 7.16992188 9.5859375 7.93359375 C16.91333506 18.14271486 16.86135784 35.16116803 18.23706055 47.26245117 C18.46203441 48.93886932 18.75172766 50.60740269 19.0925293 52.26416016 C19.77672007 55.7920966 19.708587 59.29623449 19.6875 62.875 C19.68556641 63.70902344 19.68363281 64.54304688 19.68164062 65.40234375 C19.63818945 72.00692308 19.36496991 78.59059964 19.0625 85.1875 C18.4214153 99.28593049 18.50308039 113.3767989 18.59960938 127.48632812 C18.65319082 137.27888986 18.47756187 146.92820174 17.5625 156.6875 C16.57765625 156.77386719 15.5928125 156.86023438 14.578125 156.94921875 C10.05375117 157.59831861 6.36074305 159.45861371 2.3125 161.5 C-3.50666192 164.34971043 -9.26205476 166.88208736 -15.43359375 168.8984375 C-17.62231373 169.60640253 -17.62231373 169.60640253 -19.4375 171.6875 C-19.42497192 171.0810817 -19.41244385 170.47466339 -19.39953613 169.84986877 C-19.26866851 163.50646154 -19.13909494 157.16302879 -19.01025391 150.81958008 C-18.96207958 148.45596659 -18.91358148 146.09235968 -18.86474609 143.72875977 C-18.79438371 140.32049228 -18.72520718 136.91220242 -18.65625 133.50390625 C-18.63437622 132.45666885 -18.61250244 131.40943146 -18.58996582 130.33045959 C-18.48515365 125.09340997 -18.42325433 119.86897103 -18.52746582 114.63145447 C-18.43042717 112.53467243 -17.96940153 110.71304413 -17.4375 108.6875 C-17.39016807 106.86259102 -17.39946871 105.03588447 -17.4453125 103.2109375 C-17.70807757 87.52026956 -17.18558869 72.02700483 -16.0625 56.375 C-15.99919495 55.46167908 -15.93588989 54.54835815 -15.8706665 53.60736084 C-15.68554924 50.97058166 -15.48959182 48.33486664 -15.2890625 45.69921875 C-15.23375366 44.92210037 -15.17844482 44.14498199 -15.12145996 43.34431458 C-14.74735829 38.69543462 -13.99691852 34.28904255 -12.87557983 29.76057434 C-12.4225147 27.61658681 -12.24279533 25.5609419 -12.125 23.375 C-11.44651967 16.46903947 -7.50109176 2.11569255 0 0 Z " fill="#A2C7CF" transform="translate(332.4375,216.3125)"/>
<path d="M0 0 C2.29160319 -0.02692484 4.58329546 -0.04636124 6.875 -0.0625 C8.15117187 -0.07410156 9.42734375 -0.08570313 10.7421875 -0.09765625 C14 0 14 0 16 1 C16 1.99 16 2.98 16 4 C18.475 4.495 18.475 4.495 21 5 C21.33 5.99 21.66 6.98 22 8 C22.598125 8.0825 23.19625 8.165 23.8125 8.25 C26.71975188 9.24677207 27.59558252 10.91397133 28.984375 13.5703125 C31.98067401 20.73838166 34.33292697 28.18810638 34 36 C34.66 36 35.32 36 36 36 C36.06058594 36.78246094 36.12117188 37.56492187 36.18359375 38.37109375 C36.26738281 39.38300781 36.35117188 40.39492188 36.4375 41.4375 C36.51871094 42.44683594 36.59992188 43.45617187 36.68359375 44.49609375 C36.73211468 46.93640779 36.73211468 46.93640779 38 48 C38.1003776 50.46732041 38.13617698 52.90666286 38.12939453 55.37451172 C38.13114685 56.14702774 38.13289917 56.91954376 38.13470459 57.71546936 C38.13912895 60.28689785 38.13618023 62.85825823 38.1328125 65.4296875 C38.13348606 67.2179465 38.13445652 69.00620542 38.13571167 70.79446411 C38.13718998 74.55569321 38.13503236 78.31689864 38.13037109 82.078125 C38.12471474 86.87380328 38.12792573 91.6694251 38.13394356 96.46510124 C38.13758079 100.16625381 38.13639544 103.86739331 38.13381577 107.5685463 C38.13315307 109.33458589 38.13395169 111.10062672 38.13629532 112.86666489 C38.14493371 121.21760717 38.13136161 129.48153682 37.23580933 137.79495239 C36.92019288 140.74627451 36.80748271 143.69031201 36.71875 146.65625 C36.68136719 147.7803125 36.64398438 148.904375 36.60546875 150.0625 C36.53419834 152.38538747 36.46391124 154.70830529 36.39453125 157.03125 C36.35714844 158.145 36.31976563 159.25875 36.28125 160.40625 C36.25095703 161.40978516 36.22066406 162.41332031 36.18945312 163.44726562 C36 166 36 166 35 169 C26.28953694 166.99071527 18.04254145 165.02127073 10 161 C9.14084072 152.01527544 8.88174755 143.10555034 8.95540047 134.08609962 C8.97322593 131.82217885 8.98322695 129.55833282 8.99131775 127.2943573 C9.01537011 120.8658441 9.05056726 114.4374308 9.09594727 108.0090332 C9.69440563 76.34439298 9.69440563 76.34439298 6 45 C5.92350219 43.38038502 5.89188319 41.75810555 5.90234375 40.13671875 C5.90556641 39.25048828 5.90878906 38.36425781 5.91210938 37.45117188 C5.92048828 36.53916016 5.92886719 35.62714844 5.9375 34.6875 C5.94201172 33.75615234 5.94652344 32.82480469 5.95117188 31.86523438 C5.96290766 29.57675627 5.97932637 27.28841192 6 25 C5.34 25 4.68 25 4 25 C3.79503906 23.71222656 3.59007812 22.42445313 3.37890625 21.09765625 C3.10698348 19.41923637 2.83483649 17.7408528 2.5625 16.0625 C2.42779297 15.21236328 2.29308594 14.36222656 2.15429688 13.48632812 C2.02216797 12.67744141 1.89003906 11.86855469 1.75390625 11.03515625 C1.63345947 10.2862915 1.5130127 9.53742676 1.38891602 8.76586914 C1.16240096 6.9829115 1.16240096 6.9829115 0 6 C-0.04080783 4.00041636 -0.04254356 1.99954746 0 0 Z " fill="#A3C7CF" transform="translate(194,220)"/>
<path d="M0 0 C5.57040647 4.64200539 7.01979488 9.13274214 8.0625 16.125 C8.53239429 19.23950595 9.00269636 22.00808907 10 25 C11.57495016 31.88213514 12.38123395 38.86445264 13.125 45.875 C13.21257568 46.69548828 13.30015137 47.51597656 13.39038086 48.36132812 C13.78709754 52.25738153 14.11115988 56.07764417 14 60 C13.34 60 12.68 60 12 60 C11.92523438 60.62003906 11.85046875 61.24007812 11.7734375 61.87890625 C7.7613057 88.90179399 -10.99626193 118.73571741 -31 137 C-31.33 137 -31.66 137 -32 137 C-32.82339288 131.78517841 -33.00253808 127.10282558 -32.53125 121.84375 C-31.60874965 109.9429331 -31.8945011 97.98942197 -31.9375 86.0625 C-31.94252577 83.62565196 -31.94708677 81.18880292 -31.95117188 78.75195312 C-31.96209047 72.83461316 -31.97874297 66.91731139 -32 61 C-31.34 61 -30.68 61 -30 61 C-30.02320313 60.30777344 -30.04640625 59.61554688 -30.0703125 58.90234375 C-30.27714421 47.68911026 -29.64277811 36.33392547 -25 26 C-24.35150625 24.33436669 -23.70583748 22.66763166 -23.0625 21 C-21.27101201 16.53165544 -19.21549242 12.27273539 -17 8 C-16.34 8 -15.68 8 -15 8 C-14.7525 7.401875 -14.505 6.80375 -14.25 6.1875 C-12.3229417 2.81514798 -10.23425579 1.33942034 -6.5 0.3125 C-4 0 -4 0 0 0 Z " fill="#A2C7CF" transform="translate(413,208)"/>
<path d="M0 0 C3.29747407 2.19831605 3.41198983 2.42070267 4.16796875 6.02734375 C4.33876953 6.81947266 4.50957031 7.61160156 4.68554688 8.42773438 C4.85119141 9.25595703 5.01683594 10.08417969 5.1875 10.9375 C5.36474609 11.76185547 5.54199219 12.58621094 5.72460938 13.43554688 C6.41292891 16.70705787 7 19.64569424 7 23 C7.66 23 8.32 23 9 23 C9.06058594 24.04800781 9.12117188 25.09601563 9.18359375 26.17578125 C9.26801738 27.55470048 9.35266447 28.93360605 9.4375 30.3125 C9.47681641 31.00279297 9.51613281 31.69308594 9.55664062 32.40429688 C9.74927415 35.47161535 10.02322717 38.06968152 11 41 C11.06802967 42.72795352 11.08495645 44.45835365 11.0625 46.1875 C11.05347656 47.08855469 11.04445313 47.98960937 11.03515625 48.91796875 C11.02355469 49.60503906 11.01195312 50.29210937 11 51 C11.66 51 12.32 51 13 51 C13 58.92 13 66.84 13 75 C13.66 75 14.32 75 15 75 C15 93.48 15 111.96 15 131 C14.34 131 13.68 131 13 131 C13 133.31 13 135.62 13 138 C9.24291498 136.31578947 9.24291498 136.31578947 7.75 134.375 C4.80758046 132.06309893 1.64351176 132.8208109 -2 133 C-3.36274664 128.91176009 -2.63243834 126.7612449 -0.8359375 122.9375 C3.83253492 112.11711533 2.87059592 99.88423213 -1 89 C-6.42610158 77.49008757 -14.14556463 70.59110626 -26 66 C-32.93371661 63.81607152 -39.36440876 63.8986207 -46.5625 64.375 C-48.07553711 64.46007812 -48.07553711 64.46007812 -49.61914062 64.546875 C-52.08030234 64.68684628 -54.54020142 64.83808273 -57 65 C-57.125 62.625 -57.125 62.625 -57 60 C-53.46245876 56.46245876 -48.81191939 56.94449412 -44.0390625 56.90234375 C-42.23434897 56.9089303 -40.42964797 56.92076646 -38.625 56.9375 C-37.23474609 56.94426758 -37.23474609 56.94426758 -35.81640625 56.95117188 C-33.54424272 56.96288406 -31.27211273 56.98081706 -29 57 C-29 51.06 -29 45.12 -29 39 C-28.34 39 -27.68 39 -27 39 C-27.02320312 38.18015625 -27.04640625 37.3603125 -27.0703125 36.515625 C-27.09738281 34.89914063 -27.09738281 34.89914063 -27.125 33.25 C-27.14820312 32.18265625 -27.17140625 31.1153125 -27.1953125 30.015625 C-27.00487687 27.07529894 -26.52670104 25.47638122 -25 23 C-24.34 23 -23.68 23 -23 23 C-23.0825 22.1234375 -23.165 21.246875 -23.25 20.34375 C-22.74018349 13.52495414 -16.61544083 8.46464064 -11.83203125 3.95703125 C-7.9532233 0.79846617 -5.17950973 -0.96362972 0 0 Z " fill="#A2C7D0" transform="translate(155,221)"/>
<path d="M0 0 C6.65444083 6.69755816 10.16631437 15.04981095 10.5 24.4375 C10.09279663 34.95075057 6.74831325 42.30230449 -0.58203125 49.8359375 C-7.80336346 56.29897149 -16.11842596 59.37552928 -25.86328125 58.84375 C-32.24487047 57.92578973 -36.8617249 55.81835122 -42 52 C-42.86625 51.46375 -43.7325 50.9275 -44.625 50.375 C-51.22578567 43.77421433 -54.07803057 35.53164825 -54.3125 26.375 C-54.13661501 15.32130506 -50.23705635 8.18828852 -42.58203125 0.3203125 C-39.24245296 -2.68076088 -36.2562028 -4.61210778 -32 -6 C-31.32710937 -6.24363281 -30.65421875 -6.48726563 -29.9609375 -6.73828125 C-19.44617171 -9.85447548 -8.34655574 -6.81660632 0 0 Z " fill="#393939" transform="translate(95,123)"/>
<path d="M0 0 C5.78102305 3.0036185 9.54955135 7.3827437 11.984375 13.37109375 C14.12135798 20.60020187 13.48398178 28.87230139 10.546875 35.80859375 C7.69103639 40.68517015 3.36900007 43.23468626 -1.90625 44.97265625 C-6.60900048 45.9169093 -9.95583231 44.97129207 -14.07421875 42.59375 C-20.52059188 38.03276772 -23.8499058 30.8801208 -25.27734375 23.23828125 C-25.68552428 16.28513697 -22.81811092 9.69258949 -18.515625 4.37109375 C-12.86985316 -0.06486984 -7.06478198 -2.58360828 0 0 Z " fill="#F9FCFC" transform="translate(334.890625,105.69140625)"/>
<path d="M0 0 C4.9029963 2.61563733 7.82594873 5.9512892 10.18359375 10.90234375 C12.07184568 19.39947743 11.6803005 27.77702259 6.93359375 35.27734375 C3.13587185 38.96999034 -0.89334684 42.10690772 -6.25390625 42.52734375 C-12.2221891 42.13598094 -16.32274321 40.40839363 -20.37890625 36.02734375 C-24.46306241 30.82140603 -25.54965104 25.18639046 -25.3828125 18.6796875 C-24.46197317 11.68812959 -21.60881154 5.71126798 -16.06640625 1.27734375 C-11.17081745 -1.62909002 -5.37189195 -1.87863896 0 0 Z " fill="#F9FCFC" transform="translate(225.06640625,107.72265625)"/>
<path d="M0 0 C3.9285121 2.94424436 6.2584475 6.74018625 7.79296875 11.34375 C8.25803473 18.43600615 7.24220648 22.49733859 2.48046875 28.03125 C-2.42473605 32.25200762 -6.5427667 33.95330388 -12.97265625 33.68359375 C-18.48367464 32.84537941 -22.05526387 29.86909659 -25.64453125 25.84375 C-28.66445875 21.47258809 -29.07417257 17.55838115 -28.7890625 12.3203125 C-27.82525349 7.39130266 -25.72571953 3.89357711 -22.20703125 0.34375 C-15.0746404 -4.0971726 -7.26946888 -4.06277702 0 0 Z " fill="#F4B79A" transform="translate(144.20703125,81.65625)"/>
<path d="M0 0 C9.93075121 8.81528461 16.41576733 20.87352344 17.50390625 34.22265625 C17.60694638 45.0289899 15.62608282 55.62144636 10.50390625 65.22265625 C8.85390625 65.22265625 7.20390625 65.22265625 5.50390625 65.22265625 C4.14115961 61.13441634 4.87146791 58.98390115 6.66796875 55.16015625 C11.33644117 44.33977158 10.37450217 32.10688838 6.50390625 21.22265625 C1.07780467 9.71274382 -6.64165838 2.81376251 -18.49609375 -1.77734375 C-25.42981036 -3.96127223 -31.86050251 -3.87872305 -39.05859375 -3.40234375 C-40.57163086 -3.31726563 -40.57163086 -3.31726563 -42.11523438 -3.23046875 C-44.57639609 -3.09049747 -47.03629517 -2.93926102 -49.49609375 -2.77734375 C-49.62109375 -5.15234375 -49.62109375 -5.15234375 -49.49609375 -7.77734375 C-37.94048967 -19.33294783 -10.13778379 -7.89478068 0 0 Z " fill="#6B868C" transform="translate(147.49609375,288.77734375)"/>
<path d="M0 0 C3.99946437 2.15355774 6.30327834 3.7967577 8 8 C8.76189095 11.96329811 8.80722538 15.49967422 6.8671875 19.10546875 C4.4436965 22.18241413 2.67373385 23.7662556 -1.0625 25.0625 C-6.033622 24.95673145 -8.16719328 23.77728627 -11.8125 20.375 C-14.20014589 17.28687756 -14.62802206 14.8096091 -14.35546875 10.95703125 C-13.57332189 6.65092602 -12.07569074 3.87218168 -8.6875 1.125 C-5.43064391 -0.23833511 -3.50329831 -0.50047119 0 0 Z " fill="#020202" transform="translate(332,114)"/>
<path d="M0 0 C3.99946437 2.15355774 6.30327834 3.7967577 8 8 C8.76189095 11.96329811 8.80722538 15.49967422 6.8671875 19.10546875 C4.4436965 22.18241413 2.67373385 23.7662556 -1.0625 25.0625 C-6.033622 24.95673145 -8.16719328 23.77728627 -11.8125 20.375 C-14.20014589 17.28687756 -14.62802206 14.8096091 -14.35546875 10.95703125 C-13.57332189 6.65092602 -12.07569074 3.87218168 -8.6875 1.125 C-5.43064391 -0.23833511 -3.50329831 -0.50047119 0 0 Z " fill="#030203" transform="translate(221,114)"/>
<path d="M0 0 C1.85546875 1.13671875 1.85546875 1.13671875 3.85546875 4.13671875 C4.40795494 11.73340383 4.40795494 11.73340383 1.85546875 15.13671875 C-2.29324982 18.53112485 -6.89888347 19.2894174 -12.14453125 19.13671875 C-15.70354729 18.3085631 -18.39143729 16.841226 -21.08203125 14.32421875 C-22.53814881 11.32632965 -22.61573255 9.43512784 -22.14453125 6.13671875 C-17.28583114 -2.22024544 -8.41114067 -3.38590544 0 0 Z " fill="#FAFDFD" transform="translate(282.14453125,144.86328125)"/>
<path d="M0 0 C0.99 0.495 0.99 0.495 2 1 C2.185625 1.8971875 2.185625 1.8971875 2.375 2.8125 C2.83366322 5.15059647 2.83366322 5.15059647 4.875 6.6875 C7.50599221 9.55063858 8.24190961 12.16398329 9.34765625 15.83984375 C9.98378137 18.08728185 9.98378137 18.08728185 11.0625 20.5 C13.03839192 25.76904511 14.36447152 31.35069152 14 37 C14.66 37 15.32 37 16 37 C17.60614551 45.08808989 18.26305952 52.7574683 18 61 C18.66 61 19.32 61 20 61 C20.02312376 71.28304538 20.04091525 81.56608462 20.05181217 91.84915066 C20.05704093 96.6234828 20.06413844 101.39779721 20.07543945 106.17211914 C20.0862686 110.77566262 20.09227689 115.37918899 20.09487724 119.98274422 C20.09673144 121.74309623 20.10035196 123.50344726 20.10573006 125.26379204 C20.11294086 127.72072277 20.11399093 130.17758195 20.11352539 132.63452148 C20.11712067 133.36963455 20.12071594 134.10474762 20.12442017 134.86213684 C20.11405216 139.88594784 20.11405216 139.88594784 19 141 C18.12982015 145.90422645 17.84510875 150.689995 17.75390625 155.6640625 C17.72094128 157.13151579 17.68773013 158.59896356 17.65429688 160.06640625 C17.60725279 162.3367099 17.56281419 164.60699566 17.52319336 166.87744141 C17.16011696 186.78794246 17.16011696 186.78794246 15 195 C14.34 195.33 13.68 195.66 13 196 C12.97258088 194.4584364 12.95341752 192.91672526 12.9375 191.375 C12.92589844 190.51648438 12.91429687 189.65796875 12.90234375 188.7734375 C13 186 13 186 13.48852539 183.33959961 C14.07900197 179.48416808 14.20903838 175.68390538 14.28125 171.79296875 C14.31900526 170.22200508 14.35676583 168.65104155 14.39453125 167.08007812 C14.44838396 164.6198986 14.50058399 162.15968934 14.55224609 159.69946289 C14.60379357 157.31385533 14.66105939 154.92843436 14.71875 152.54296875 C14.73232544 151.80137009 14.74590088 151.05977142 14.7598877 150.29570007 C14.88706362 145.11293638 14.88706362 145.11293638 16 144 C16.38282886 140.43300009 16.4336002 136.83399792 16.5625 133.25 C16.6042334 132.10909912 16.6459668 130.96819824 16.68896484 129.79272461 C17.37826784 108.54671821 17.32294573 87.24504506 16.625 66 C16.59422363 64.96431885 16.56344727 63.9286377 16.53173828 62.86157227 C16.18763893 54.12844493 15.74850374 44.83914417 12.375 36.6875 C10.77407132 32.39410035 10.7573924 29.52867514 11 25 C10.34 25 9.68 25 9 25 C9 23.02 9 21.04 9 19 C8.34 19 7.68 19 7 19 C7 17.02 7 15.04 7 13 C6.34 13 5.68 13 5 13 C4.71125 12.195625 4.4225 11.39125 4.125 10.5625 C3.26737432 7.8673532 3.26737432 7.8673532 1 7 C0.59270772 4.67843403 0.25561323 2.3431213 0 0 Z " fill="#D89F81" transform="translate(248,211)"/>
<path d="M0 0 C2.91457862 1.85001093 5.4307246 3.86144919 7 7 C7.58141192 11.90047189 7.56677128 14.93124029 4.625 19 C1.88973732 21.83921566 -0.1433722 22.51761255 -4.0625 22.6875 C-8.48132347 22.36190248 -10.98416021 21.39281977 -14 18 C-16.30426256 14.19677079 -16.20241499 11.49989034 -15.61328125 7.19140625 C-14.65775922 3.77708867 -12.76434517 2.10616775 -10 0 C-6.14217025 -1.28594325 -3.95337324 -0.93808857 0 0 Z " fill="#FDFBF8" transform="translate(138,86)"/>
<path d="M0 0 C0.66 0 1.32 0 2 0 C2 7.92 2 15.84 2 24 C2.66 24 3.32 24 4 24 C4 42.48 4 60.96 4 80 C3.34 80 2.68 80 2 80 C2 82.31 2 84.62 2 87 C-0.91280837 85.69425831 -2.80294493 84.2925792 -5 82 C-5.99 81.34 -6.98 80.68 -8 80 C-7.74605469 79.40574219 -7.49210938 78.81148438 -7.23046875 78.19921875 C-4.61806585 71.90792638 -2.65735402 65.60430465 -1 59 C-0.34 59 0.32 59 1 59 C0.96970703 57.78119141 0.93941406 56.56238281 0.90820312 55.30664062 C0.79440635 50.70691561 0.68322139 46.10713029 0.57275391 41.50732422 C0.5249439 39.53107036 0.47646165 37.55483263 0.42724609 35.57861328 C0.1323378 23.71607761 -0.07700004 11.86656132 0 0 Z " fill="#AAC5CB" transform="translate(166,272)"/>
<path d="M0 0 C2.625 2.625 2.625 2.625 4 6 C3.92131573 10.56368741 3.27251475 13.72748525 0 17 C-3.67242465 18.22414155 -6.1422537 18.46559007 -10 18 C-13.20021124 15.14023677 -14.76688235 13.24329413 -15.5625 9 C-14.85564296 5.23009581 -13.364441 2.99032245 -11 0 C-7.47098729 -1.76450635 -3.7099646 -1.05905018 0 0 Z " fill="#3B3B3B" transform="translate(75,212)"/>
<path d="M0 0 C4.0553591 1.35178637 5.39946313 2.33855434 7.375 6.125 C7.31017075 9.82026727 6.85014613 12.26521176 5.0625 15.5 C3.05298578 17.43508777 2.16137106 17.9657788 -0.625 18.125 C-3.87620305 17.39513809 -6.01238331 16.67635502 -8.5 14.4375 C-10.15335064 11.03894591 -10.21380754 8.8541144 -9.625 5.125 C-6.49148819 1.45649837 -4.86447322 0.16774046 0 0 Z " fill="#FBFBFB" transform="translate(73.625,139.875)"/>
<path d="M0 0 C0.33 0 0.66 0 1 0 C1.06058594 1.25296875 1.12117187 2.5059375 1.18359375 3.796875 C1.26802256 5.44792724 1.35266939 7.09896835 1.4375 8.75 C1.47681641 9.575 1.51613281 10.4 1.55664062 11.25 C1.59853516 12.04921875 1.64042969 12.8484375 1.68359375 13.671875 C1.72025146 14.4050293 1.75690918 15.13818359 1.79467773 15.89355469 C1.93004229 17.95968541 1.93004229 17.95968541 2.50474548 19.7256012 C3.14947776 22.68645923 3.12731677 25.46586128 3.12939453 28.49682617 C3.13254669 29.81466599 3.13569885 31.1325058 3.13894653 32.49028015 C3.13715715 33.92451003 3.1351063 35.35873959 3.1328125 36.79296875 C3.13348617 38.26459265 3.13445673 39.73621644 3.13571167 41.20783997 C3.13718427 44.28692691 3.13504721 47.3659848 3.13037109 50.44506836 C3.124659 54.39977662 3.1279649 58.35441723 3.13394356 62.30912304 C3.13754816 65.34504206 3.13641132 68.3809449 3.13381577 71.4168644 C3.13314699 72.87577637 3.13397319 74.3346898 3.13629532 75.79360008 C3.13882177 77.82618559 3.13429143 79.85877624 3.12939453 81.89135742 C3.12859894 83.0495549 3.12780334 84.20775238 3.12698364 85.40104675 C3 88 3 88 2 89 C1.90180448 90.4415579 1.8720166 91.8878659 1.87060547 93.33276367 C1.86745331 94.25429733 1.86430115 95.17583099 1.86105347 96.12528992 C1.8630777 97.12937393 1.86510193 98.13345795 1.8671875 99.16796875 C1.86575241 100.70932243 1.86575241 100.70932243 1.86428833 102.28181458 C1.86360607 104.46334901 1.86546354 106.64488545 1.86962891 108.82641602 C1.87494936 112.15580871 1.86969959 115.48506481 1.86328125 118.81445312 C1.86394256 120.93229196 1.86522481 123.05013072 1.8671875 125.16796875 C1.86516327 126.16193161 1.86313904 127.15589447 1.86105347 128.17997742 C1.87692781 132.90021185 2.01753108 137.35839533 3 142 C1 141 1 141 0.41015625 139.33203125 C-2.98472103 120.02972897 -0.76551329 99.44933091 0 80 C0.66 80 1.32 80 2 80 C2 61.52 2 43.04 2 24 C1.34 24 0.68 24 0 24 C0 16.08 0 8.16 0 0 Z " fill="#E9936A" transform="translate(168,272)"/>
<path d="M0 0 C0.33 0 0.66 0 1 0 C1.02322232 10.92718269 1.04096539 21.85435946 1.05181217 32.78156185 C1.0570194 37.85609245 1.06407767 42.9306061 1.07543945 48.00512695 C1.08634528 52.9069644 1.09229309 57.80878559 1.09487724 62.71063423 C1.09671766 64.57601744 1.10031144 66.4413998 1.10573006 68.30677605 C1.11304274 70.9297156 1.11398666 73.55258892 1.11352539 76.17553711 C1.11712067 76.9379924 1.12071594 77.70044769 1.12442017 78.48600769 C1.11576068 83.06925709 0.79314548 87.52933043 0.2227459 92.0775795 C-0.04215821 94.36384873 -0.08446127 96.59471878 -0.02734375 98.89453125 C-0.01509766 99.70470703 -0.00285156 100.51488281 0.00976562 101.34960938 C0.04534175 103.01114602 0.08448576 104.67260958 0.12695312 106.33398438 C0.14338867 107.53958008 0.14338867 107.53958008 0.16015625 108.76953125 C0.18541382 109.84618042 0.18541382 109.84618042 0.21118164 110.94458008 C-0.03418939 113.33276358 -0.88855 114.89205861 -2 117 C-2.02526563 109.18547248 -2.04283105 101.37095542 -2.05493164 93.55639648 C-2.05997383 90.89558519 -2.06680736 88.23477668 -2.07543945 85.57397461 C-2.08751009 81.75894484 -2.09322929 77.94395156 -2.09765625 74.12890625 C-2.10281754 72.93100967 -2.10797882 71.7331131 -2.11329651 70.49891663 C-2.11337204 69.3978508 -2.11344757 68.29678497 -2.11352539 67.16235352 C-2.115746 66.18750504 -2.11796661 65.21265656 -2.12025452 64.20826721 C-2 62 -2 62 -1 61 C-0.87649342 59.09839888 -0.82206557 57.1922761 -0.79467773 55.28686523 C-0.77473251 54.0656749 -0.75478729 52.84448456 -0.73423767 51.58628845 C-0.71725209 50.24372487 -0.70037333 48.90115993 -0.68359375 47.55859375 C-0.66303053 46.19238139 -0.64203423 44.82617549 -0.62062073 43.4599762 C-0.56533465 39.85805476 -0.51595437 36.25607529 -0.46777344 32.65405273 C-0.41760597 28.98090428 -0.36189515 25.30784045 -0.30664062 21.63476562 C-0.19897918 14.42324868 -0.09755213 7.21166153 0 0 Z " fill="#E5956C" transform="translate(203,296)"/>
<path d="M0 0 C0.33 0 0.66 0 1 0 C1.27464643 23.39776341 0.92923186 46.76468793 0.18856049 70.15051651 C0.12537419 72.17550799 0.06525053 74.20056967 0.00592041 76.22567749 C-0.10954711 80.08178795 -0.23650987 83.93734686 -0.3671875 87.79296875 C-0.40062256 88.93338623 -0.43405762 90.07380371 -0.46850586 91.2487793 C-0.74617858 98.85532899 -1.1726039 106.58615345 -3 114 C-3.99 114.495 -3.99 114.495 -5 115 C-5.02741912 113.4584364 -5.04658248 111.91672526 -5.0625 110.375 C-5.07410156 109.51648438 -5.08570313 108.65796875 -5.09765625 107.7734375 C-5 105 -5 105 -4.51147461 102.33959961 C-3.92099803 98.48416808 -3.79096162 94.68390538 -3.71875 90.79296875 C-3.68099474 89.22200508 -3.64323417 87.65104155 -3.60546875 86.08007812 C-3.55161604 83.6198986 -3.49941601 81.15968934 -3.44775391 78.69946289 C-3.39620643 76.31385533 -3.33894061 73.92843436 -3.28125 71.54296875 C-3.26767456 70.80137009 -3.25409912 70.05977142 -3.2401123 69.29570007 C-3.11293638 64.11293638 -3.11293638 64.11293638 -2 63 C-1.84676291 61.03790496 -1.76154473 59.07046672 -1.70288086 57.10327148 C-1.66291489 55.84203964 -1.62294891 54.5808078 -1.58177185 53.28135681 C-1.54269325 51.89460534 -1.50371972 50.50785091 -1.46484375 49.12109375 C-1.42185329 47.71003452 -1.37843684 46.29898821 -1.33460999 44.88795471 C-1.22021083 41.16773123 -1.11162152 37.44735967 -1.00421143 33.72692871 C-0.8936629 29.9330812 -0.77766179 26.13940094 -0.66210938 22.34570312 C-0.43604725 14.89728894 -0.21611805 7.44871005 0 0 Z " fill="#EA8D62" transform="translate(266,292)"/>
<path d="M0 0 C0.33 0 0.66 0 1 0 C1.06058594 0.78246094 1.12117187 1.56492187 1.18359375 2.37109375 C1.26738281 3.38300781 1.35117188 4.39492188 1.4375 5.4375 C1.51871094 6.44683594 1.59992188 7.45617187 1.68359375 8.49609375 C1.73211468 10.93640779 1.73211468 10.93640779 3 12 C3.1003776 14.46732041 3.13617698 16.90666286 3.12939453 19.37451172 C3.13114685 20.14702774 3.13289917 20.91954376 3.13470459 21.71546936 C3.13912895 24.28689785 3.13618023 26.85825823 3.1328125 29.4296875 C3.13348606 31.2179465 3.13445652 33.00620542 3.13571167 34.79446411 C3.13718998 38.55569321 3.13503236 42.31689864 3.13037109 46.078125 C3.12471474 50.87380328 3.12792573 55.6694251 3.13394356 60.46510124 C3.13758079 64.16625381 3.13639544 67.86739331 3.13381577 71.5685463 C3.13315307 73.33458589 3.13395169 75.10062672 3.13629532 76.86666489 C3.14493087 85.21485602 3.1332283 93.47757777 2.23803711 101.78826904 C1.91647641 104.77606267 1.79027589 107.75937852 1.68359375 110.76171875 C1.64169922 111.89931641 1.59980469 113.03691406 1.55664062 114.20898438 C1.51732422 115.35689453 1.47800781 116.50480469 1.4375 117.6875 C1.39431641 118.87794922 1.35113281 120.06839844 1.30664062 121.29492188 C1.20176321 124.19653034 1.09959804 127.09820635 1 130 C0.67 130 0.34 130 0 130 C-0.02993595 125.75001581 -0.04710123 121.50005974 -0.0625 117.25 C-0.07087891 116.08210938 -0.07925781 114.91421875 -0.08789062 113.7109375 C-0.10684065 106.661529 0.09542125 99.67635191 0.49609375 92.640625 C1.10467623 81.6897198 1.15167936 70.75364568 1.13037109 59.78808594 C1.12496058 56.47586591 1.13038098 53.16377872 1.13671875 49.8515625 C1.13605859 47.70312471 1.13477872 45.55468699 1.1328125 43.40625 C1.13483673 42.43723755 1.13686096 41.4682251 1.13894653 40.46984863 C1.11893197 34.52942385 0.78897444 28.67957893 0.22361755 22.76568604 C-0.14064477 18.26051542 -0.10684784 13.76665721 -0.0625 9.25 C-0.05798828 8.35023438 -0.05347656 7.45046875 -0.04882812 6.5234375 C-0.03726159 4.34892818 -0.01933803 2.17445409 0 0 Z " fill="#C3B5A7" transform="translate(229,256)"/>
<path d="M0 0 C0.66 0 1.32 0 2 0 C2 7.92 2 15.84 2 24 C2.66 24 3.32 24 4 24 C4 42.48 4 60.96 4 80 C3.67 80 3.34 80 3 80 C2.96241577 78.8718689 2.96241577 78.8718689 2.92407227 77.72094727 C2.80849486 74.33460804 2.68559655 70.94857387 2.5625 67.5625 C2.52318359 66.37849609 2.48386719 65.19449219 2.44335938 63.97460938 C2.40146484 62.84990234 2.35957031 61.72519531 2.31640625 60.56640625 C2.27974854 59.52427979 2.24309082 58.48215332 2.20532227 57.40844727 C2.26484659 55.0500174 2.26484659 55.0500174 1 54 C0.83914617 51.37718368 0.74015415 48.77806526 0.68359375 46.15234375 C0.66281265 45.34825577 0.64203156 44.54416779 0.62062073 43.7157135 C0.57723319 41.99990368 0.53620709 40.28403283 0.49731445 38.56811523 C0.43892864 36.00033104 0.37349552 33.43281043 0.30664062 30.86523438 C0.04893442 20.57456568 -0.0565647 10.29387791 0 0 Z " fill="#C8AD9C" transform="translate(166,272)"/>
<path d="M0 0 C3.33959141 0.77067494 4.53369782 1.70679673 6.4375 4.5625 C6.4375 8.33934879 6.22145245 10.59763544 3.8125 13.5625 C0.38973815 15.00366288 -2.00855372 14.41807966 -5.5625 13.5625 C-7.5625 11.5625 -7.5625 11.5625 -8 8.75 C-7.5625 5.5625 -7.5625 5.5625 -5.375 2.6875 C-2.5625 0.5625 -2.5625 0.5625 0 0 Z " fill="#3A3A3A" transform="translate(68.5625,241.4375)"/>
<path d="M0 0 C0.33 0 0.66 0 1 0 C1.33 2.97 1.66 5.94 2 9 C1.67 9 1.34 9 1 9 C0.67 17.91 0.34 26.82 0 36 C0.99 36 1.98 36 3 36 C3 35.34 3 34.68 3 34 C8.87094438 31.42003482 14.59609985 31.77447574 20.875 31.875 C21.94492188 31.88402344 23.01484375 31.89304687 24.1171875 31.90234375 C26.74502439 31.92580658 29.37239406 31.95863541 32 32 C31.99476318 31.42967041 31.98952637 30.85934082 31.98413086 30.27172852 C31.96341779 27.70199677 31.9503581 25.13228253 31.9375 22.5625 C31.92912109 21.66466797 31.92074219 20.76683594 31.91210938 19.84179688 C31.90888672 18.98779297 31.90566406 18.13378906 31.90234375 17.25390625 C31.89710693 16.46314697 31.89187012 15.6723877 31.88647461 14.85766602 C32 13 32 13 33 12 C33.36760731 9.67182036 33.70241581 7.3381615 34 5 C34.33 5 34.66 5 35 5 C35 8.3 35 11.6 35 15 C34.34 15 33.68 15 33 15 C33 20.94 33 26.88 33 33 C30.95619141 33.07347656 30.95619141 33.07347656 28.87109375 33.1484375 C27.05987735 33.22351383 25.24868037 33.29905952 23.4375 33.375 C22.54224609 33.4059375 21.64699219 33.436875 20.72460938 33.46875 C12.29656209 33.53155286 12.29656209 33.53155286 5 37 C2 37.125 2 37.125 -1 37 C-3.59159337 34.40840663 -2.18560903 27.0437771 -2.1875 23.5625 C-2.19974609 22.41072266 -2.21199219 21.25894531 -2.22460938 20.07226562 C-2.23641614 13.13382592 -1.69650808 6.73508902 0 0 Z " fill="#E79D7A" transform="translate(93,245)"/>
<path d="M0 0 C2.43987139 4.87974277 3.13977715 8.18469364 3.11352539 13.66259766 C3.11367142 14.45292892 3.11381744 15.24326019 3.1139679 16.05754089 C3.11326983 18.67640911 3.10548239 21.29520667 3.09765625 23.9140625 C3.09579169 25.72724366 3.09436797 27.54042533 3.09336853 29.35360718 C3.08954632 34.13103623 3.07971855 38.90843499 3.06866455 43.68585205 C3.05844407 48.55879303 3.05386954 53.4317389 3.04882812 58.3046875 C3.03809603 67.86980499 3.02102314 77.43489998 3 87 C2.67 87 2.34 87 2 87 C1.9845388 85.89603882 1.9845388 85.89603882 1.96876526 84.76977539 C1.86934645 77.71345023 1.76667522 70.6571808 1.66066074 63.60095215 C1.60631011 59.97634021 1.55306721 56.35172023 1.50268555 52.72705078 C1.25731692 35.13852025 0.86703482 17.57122451 0 0 Z " fill="#C6AD9C" transform="translate(202,272)"/>
<path d="M0 0 C0 0.66 0 1.32 0 2 C1.98 2.33 3.96 2.66 6 3 C6 3.33 6 3.66 6 4 C5.07380859 3.89171875 5.07380859 3.89171875 4.12890625 3.78125 C-7.36600166 2.52153407 -18.6087921 2.84490661 -30 5 C-30 5.66 -30 6.32 -30 7 C-36.95047184 8.21357445 -41.50023898 7.71975816 -48 5 C-44.8240943 3.99212125 -42.63235951 4.10923911 -39.375 4.6875 C-34.25063833 5.29611187 -31.10948152 4.0749218 -26.484375 1.9921875 C-18.35505994 -1.25442575 -8.57459668 -0.11119794 0 0 Z " fill="#BEB9AB" transform="translate(210,183)"/>
<path d="M0 0 C0.84127441 -0.00926514 1.68254883 -0.01853027 2.54931641 -0.02807617 C3.74500244 -0.02191284 3.74500244 -0.02191284 4.96484375 -0.015625 C5.68148193 -0.01336914 6.39812012 -0.01111328 7.13647461 -0.00878906 C9.0625 0.25 9.0625 0.25 12.0625 2.25 C11.41667969 2.23839844 10.77085937 2.22679687 10.10546875 2.21484375 C0.39960943 2.12190118 -9.25273514 2.6826916 -18.9375 3.25 C-18.9375 3.91 -18.9375 4.57 -18.9375 5.25 C-20.5875 5.58 -22.2375 5.91 -23.9375 6.25 C-24.0921875 7.1471875 -24.0921875 7.1471875 -24.25 8.0625 C-25.08253136 10.7114634 -25.69484868 11.60538903 -27.9375 13.25 C-30.2515622 13.98075648 -32.58578869 14.65138258 -34.9375 15.25 C-35.9275 15.745 -35.9275 15.745 -36.9375 16.25 C-35.79599612 12.82548836 -34.89298398 12.16203482 -32.0625 10.0625 C-31.01449219 9.26779297 -31.01449219 9.26779297 -29.9453125 8.45703125 C-27.9375 7.25 -27.9375 7.25 -24.9375 7.25 C-24.9375 6.59 -24.9375 5.93 -24.9375 5.25 C-17.9517595 -0.3385924 -8.49658429 0.05992513 0 0 Z " fill="#E29571" transform="translate(152.9375,186.75)"/>
<path d="M0 0 C0.99 0.495 0.99 0.495 2 1 C2.16744386 6.09014139 2.32802081 11.18043494 2.48217773 16.27099609 C2.5356173 18.00347759 2.59094818 19.7359018 2.64819336 21.46826172 C2.73004993 23.95527798 2.80514988 26.4424195 2.87890625 28.9296875 C2.90594131 29.70682098 2.93297638 30.48395447 2.96083069 31.28463745 C3.11387171 36.77225659 3.11387171 36.77225659 2 39 C1.76827173 41.54615009 1.58105471 44.07396225 1.4375 46.625 C1.39431641 47.33140625 1.35113281 48.0378125 1.30664062 48.765625 C1.20055249 50.51018537 1.09977111 52.25506697 1 54 C0.67 54 0.34 54 0 54 C0 36.18 0 18.36 0 0 Z " fill="#B0C3C5" transform="translate(205,304)"/>
<path d="M0 0 C0.33 0 0.66 0 1 0 C1 2.64 1 5.28 1 8 C0.34 8 -0.32 8 -1 8 C-1.89734629 11.89914526 -2.1886822 15.61734298 -2.31640625 19.61328125 C-2.35830078 20.86044922 -2.40019531 22.10761719 -2.44335938 23.39257812 C-2.48267578 24.68615234 -2.52199219 25.97972656 -2.5625 27.3125 C-2.60568359 28.62541016 -2.64886719 29.93832031 -2.69335938 31.29101562 C-2.79927227 34.52724288 -2.90134885 37.76354458 -3 41 C-3.99 41 -4.98 41 -6 41 C-6 34.73 -6 28.46 -6 22 C-5.34 22 -4.68 22 -4 22 C-4.03480469 20.77023437 -4.03480469 20.77023437 -4.0703125 19.515625 C-4.08835937 18.43796875 -4.10640625 17.3603125 -4.125 16.25 C-4.14820312 15.18265625 -4.17140625 14.1153125 -4.1953125 13.015625 C-4.00487687 10.07529894 -3.52670104 8.47638122 -2 6 C-1.34 6 -0.68 6 0 6 C0 4.02 0 2.04 0 0 Z " fill="#BFB5AA" transform="translate(132,238)"/>
<path d="M0 0 C0.92683594 0.00451172 1.85367188 0.00902344 2.80859375 0.01367188 C5.08079709 0.02538426 7.35286388 0.04178628 9.625 0.0625 C9.625 1.0525 9.625 2.0425 9.625 3.0625 C9.11453125 2.90910156 8.6040625 2.75570313 8.078125 2.59765625 C4.8500662 1.89344597 1.67081999 1.71361796 -1.625 1.5 C-2.88828125 1.41621094 -4.1515625 1.33242188 -5.453125 1.24609375 C-6.41734375 1.18550781 -7.3815625 1.12492187 -8.375 1.0625 C-8.375 3.0425 -8.375 5.0225 -8.375 7.0625 C-11.84825181 8.2202506 -14.73567448 8.13116652 -18.375 8.0625 C-18.5 5.6875 -18.5 5.6875 -18.375 3.0625 C-13.90171445 -1.41078555 -5.95458351 -0.05521368 0 0 Z " fill="#6D8489" transform="translate(116.375,277.9375)"/>
<path d="M0 0 C0.33 0 0.66 0 1 0 C1 2.64 1 5.28 1 8 C1.66 8 2.32 8 3 8 C3.04898438 9.258125 3.09796875 10.51625 3.1484375 11.8125 C3.49870564 20.04905935 3.90681989 28.20764939 5.0625 36.375 C6.06279124 43.65119255 6.20642788 50.66034207 6 58 C5.67 58 5.34 58 5 58 C4.94465088 57.34402832 4.88930176 56.68805664 4.83227539 56.01220703 C4.57990601 53.04942727 4.32128185 50.08722626 4.0625 47.125 C3.97548828 46.09246094 3.88847656 45.05992187 3.79882812 43.99609375 C3.66831055 42.51689453 3.66831055 42.51689453 3.53515625 41.0078125 C3.456604 40.09660645 3.37805176 39.18540039 3.29711914 38.24658203 C3.12004581 35.968356 3.12004581 35.968356 2 34 C1.85950368 32.35749666 1.77429918 30.71006509 1.71875 29.0625 C1.68136719 28.08539063 1.64398438 27.10828125 1.60546875 26.1015625 C1.53515625 24.03385417 1.46484375 21.96614583 1.39453125 19.8984375 C1.35714844 18.92132813 1.31976563 17.94421875 1.28125 16.9375 C1.25095703 16.03902344 1.22066406 15.14054688 1.18945312 14.21484375 C1.13392543 11.96005305 1.13392543 11.96005305 0 10 C-0.06996014 8.29297265 -0.08440154 6.58331997 -0.0625 4.875 C-0.05347656 3.96492187 -0.04445312 3.05484375 -0.03515625 2.1171875 C-0.02355469 1.41851562 -0.01195312 0.71984375 0 0 Z " fill="#E98E66" transform="translate(197,237)"/>
<path d="M0 0 C0.33 0 0.66 0 1 0 C1.05013226 4.60406987 1.0860587 9.20797445 1.10986328 13.81225586 C1.11980628 15.37250543 1.13336547 16.93273696 1.15087891 18.49291992 C1.36712207 38.27916917 1.36712207 38.27916917 -1 47 C-1.99 47.495 -1.99 47.495 -3 48 C-3.05506505 46.47959282 -3.09326375 44.95857296 -3.125 43.4375 C-3.14820313 42.59058594 -3.17140625 41.74367188 -3.1953125 40.87109375 C-3 38 -3 38 -2.01367188 34.78710938 C-0.9740457 30.90303394 -0.68582259 27.54720743 -0.5859375 23.53515625 C-0.56657135 22.85698349 -0.5472052 22.17881073 -0.5272522 21.48008728 C-0.46808001 19.34101434 -0.42132481 17.20188572 -0.375 15.0625 C-0.33676255 13.60088964 -0.29770758 12.13930043 -0.2578125 10.67773438 C-0.16243181 7.11868457 -0.07817433 3.55947413 0 0 Z " fill="#DE9A79" transform="translate(264,359)"/>
<path d="M0 0 C0.33 0 0.66 0 1 0 C1 3.3 1 6.6 1 10 C0.34 10 -0.32 10 -1 10 C-1 15.94 -1 21.88 -1 28 C-2.32773438 28.04898437 -3.65546875 28.09796875 -5.0234375 28.1484375 C-18.12130021 28.67838607 -18.12130021 28.67838607 -31 31 C-31 30.34 -31 29.68 -31 29 C-25.12905562 26.42003482 -19.40390015 26.77447574 -13.125 26.875 C-12.05507812 26.88402344 -10.98515625 26.89304687 -9.8828125 26.90234375 C-7.25497561 26.92580658 -4.62760594 26.95863541 -2 27 C-2.00785522 26.14450562 -2.00785522 26.14450562 -2.01586914 25.27172852 C-2.03658221 22.70199677 -2.0496419 20.13228253 -2.0625 17.5625 C-2.07087891 16.66466797 -2.07925781 15.76683594 -2.08789062 14.84179688 C-2.09272461 13.56079102 -2.09272461 13.56079102 -2.09765625 12.25390625 C-2.10551147 11.06776733 -2.10551147 11.06776733 -2.11352539 9.85766602 C-2 8 -2 8 -1 7 C-0.63239269 4.67182036 -0.29758419 2.3381615 0 0 Z " fill="#E28E67" transform="translate(127,250)"/>
<path d="M0 0 C0.33 0.66 0.66 1.32 1 2 C-0.3702582 5.88379932 -2.23545252 9.25729673 -5.1875 12.125 C-7.57964245 14.59963012 -7.69458207 16.64040275 -8 20 C-8.66 20 -9.32 20 -10 20 C-10.12503906 20.54269531 -10.25007813 21.08539063 -10.37890625 21.64453125 C-11.10050867 24.38117439 -11.99350748 27.01938529 -12.9375 29.6875 C-13.27652344 30.66074219 -13.61554688 31.63398438 -13.96484375 32.63671875 C-15 35 -15 35 -17 36 C-11.51902588 15.90309488 -11.51902588 15.90309488 -6 8 C-5.34 7.67 -4.68 7.34 -4 7 C-3.34786708 4.97536745 -3.34786708 4.97536745 -3 3 C-2.34 3 -1.68 3 -1 3 C-0.67 2.01 -0.34 1.02 0 0 Z " fill="#EC9A73" transform="translate(111,208)"/>
<path d="M0 0 C2.38432398 2.38432398 3.09773429 3.73796244 4 7 C3.87265795 10.03583453 3.4833588 13.00186905 3 16 C2.34 16 1.68 16 1 16 C1 16.99 1 17.98 1 19 C0.01 19 -0.98 19 -2 19 C-1.835 18.319375 -1.67 17.63875 -1.5 16.9375 C-0.75904234 12.58437374 -0.66475851 8.50858672 -1.625 4.1875 C-1.74875 3.465625 -1.8725 2.74375 -2 2 C-1.34 1.34 -0.68 0.68 0 0 Z " fill="#FBB48F" transform="translate(147,87)"/>
<path d="M0 0 C0.33 0 0.66 0 1 0 C2.2917638 3.44470347 3.15550182 6.66920984 3.5625 10.3125 C3.59014592 13.79643666 3.59014592 13.79643666 5 15 C5.24348209 17.44383874 5.4265224 19.86211097 5.5625 22.3125 C5.6049585 23.02857422 5.64741699 23.74464844 5.69116211 24.48242188 C6.03274938 30.65711004 6.10540066 36.81649465 6 43 C5.67 43 5.34 43 5 43 C4.24636948 39.64908229 3.88020063 36.56890188 3.90234375 33.13671875 C3.90556641 32.25048828 3.90878906 31.36425781 3.91210938 30.45117188 C3.92048828 29.53916016 3.92886719 28.62714844 3.9375 27.6875 C3.94201172 26.75615234 3.94652344 25.82480469 3.95117188 24.86523438 C3.96290766 22.57675627 3.97932637 20.28841192 4 18 C3.34 18 2.68 18 2 18 C0.59545452 11.88019467 -0.23268915 6.28260706 0 0 Z " fill="#C6B1A1" transform="translate(196,227)"/>
<path d="M0 0 C0.99 0.66 1.98 1.32 3 2 C2.67 2.66 2.34 3.32 2 4 C1.67 3.67 1.34 3.34 1 3 C-2.83319229 2.82576399 -6.26835686 3.12196632 -10 4 C-10 4.66 -10 5.32 -10 6 C-10.66 6 -11.32 6 -12 6 C-12.2475 6.78375 -12.495 7.5675 -12.75 8.375 C-14.15389099 11.32317108 -15.00675737 11.9024777 -18 13 C-18 14.32 -18 15.64 -18 17 C-19.32 16.67 -20.64 16.34 -22 16 C-8.88266171 -1.65258823 -8.88266171 -1.65258823 0 0 Z " fill="#C3B4A8" transform="translate(155,221)"/>
<path d="M0 0 C2.50535913 2.34877419 3.90564909 4.0911787 4.265625 7.55859375 C4.25149142 10.04963675 4.17369194 12.51524028 4 15 C4.66 15 5.32 15 6 15 C9.09719631 21.19439262 8.11132878 30.20894463 8 37 C5.54608431 33.31912647 5.77197241 30.55644412 5.875 26.3125 C5.88402344 25.61060547 5.89304688 24.90871094 5.90234375 24.18554688 C5.92586296 22.45688475 5.96173287 20.72839855 6 19 C5.34 19 4.68 19 4 19 C3.32713788 16.58490559 2.66153988 14.16819644 2 11.75 C1.71382812 10.72712891 1.71382812 10.72712891 1.421875 9.68359375 C0.50042956 6.29399088 0 3.54221024 0 0 Z " fill="#D3A38A" transform="translate(158,225)"/>
<path d="M0 0 C2.186939 4.37387801 3.12180602 6.90795956 3.09765625 11.8828125 C3.09443359 13.04941406 3.09121094 14.21601563 3.08789062 15.41796875 C3.07951172 16.64128906 3.07113281 17.86460937 3.0625 19.125 C3.05798828 20.35605469 3.05347656 21.58710938 3.04882812 22.85546875 C3.0370133 25.90369392 3.02054028 28.95182314 3 32 C2.67 32 2.34 32 2 32 C1.66002426 28.35475481 1.32925063 24.70872831 1 21.0625 C0.90460938 20.04091797 0.80921875 19.01933594 0.7109375 17.96679688 C0.17253448 11.94822031 -0.10081112 6.04236648 0 0 Z " fill="#C0BAAF" transform="translate(202,272)"/>
<path d="M0 0 C1.35015859 4.05047576 0.62084998 6.7920168 0 11 C0.99 11.33 1.98 11.66 3 12 C2.236875 12.556875 1.47375 13.11375 0.6875 13.6875 C-1.96140888 15.96679369 -3.38288822 17.93599872 -5 21 C-6.71578581 17.56842837 -4.70581722 14.00115791 -3.625 10.5 C-3.39039062 9.71496094 -3.15578125 8.92992187 -2.9140625 8.12109375 C-1.16703869 2.33407738 -1.16703869 2.33407738 0 0 Z " fill="#AAC6C9" transform="translate(119,185)"/>
<path d="M0 0 C1.39025391 0.01353516 1.39025391 0.01353516 2.80859375 0.02734375 C5.08100077 0.05077063 7.3528618 0.08357252 9.625 0.125 C9.625 0.785 9.625 1.445 9.625 2.125 C7.68947266 2.21587891 7.68947266 2.21587891 5.71484375 2.30859375 C3.99738745 2.39305881 2.27993998 2.47770377 0.5625 2.5625 C-0.28505859 2.60181641 -1.13261719 2.64113281 -2.00585938 2.68164062 C-6.85500209 2.92503389 -11.58128212 3.35098042 -16.375 4.125 C-16.375 3.465 -16.375 2.805 -16.375 2.125 C-10.8647515 -0.19992213 -5.86387115 -0.10874511 0 0 Z " fill="#C2B7AC" transform="translate(152.375,184.875)"/>
<path d="M0 0 C1.24523437 0.01804688 2.49046875 0.03609375 3.7734375 0.0546875 C5.18496094 0.08949219 5.18496094 0.08949219 6.625 0.125 C6.625 0.785 6.625 1.445 6.625 2.125 C9.595 2.62 9.595 2.62 12.625 3.125 C12.625 3.455 12.625 3.785 12.625 4.125 C12.08875 4.0528125 11.5525 3.980625 11 3.90625 C2.87110176 2.94361731 -5.20466291 3.03376795 -13.375 3.125 C-13.375 2.795 -13.375 2.465 -13.375 2.125 C-8.75130977 0.31820413 -4.94971347 -0.09339082 0 0 Z " fill="#C4B2A6" transform="translate(203.375,182.875)"/>
<path d="M0 0 C0.66 0 1.32 0 2 0 C2.04898438 1.07378906 2.09796875 2.14757812 2.1484375 3.25390625 C2.22353398 4.69012642 2.29907876 6.12632319 2.375 7.5625 C2.42140625 8.61920898 2.42140625 8.61920898 2.46875 9.69726562 C2.72952558 14.41295741 3.54658123 18.50385496 5 23 C3.08203125 21.92578125 3.08203125 21.92578125 1 20 C0.13671875 16.85546875 0.13671875 16.85546875 -0.3125 13.1875 C-0.47363281 11.98480469 -0.63476562 10.78210938 -0.80078125 9.54296875 C-0.99162941 6.14886512 -0.70525728 3.31318707 0 0 Z " fill="#FBE1D0" transform="translate(227,389)"/>
<path d="M0 0 C0.33 0 0.66 0 1 0 C1.33 4.62 1.66 9.24 2 14 C5.3 14 8.6 14 12 14 C12 14.66 12 15.32 12 16 C7.71 16 3.42 16 -1 16 C-1.08441199 10.51322045 -0.92037377 5.40719589 0 0 Z " fill="#AFC5C8" transform="translate(266,377)"/>
<path d="M0 0 C0.92683594 0.00451172 1.85367188 0.00902344 2.80859375 0.01367188 C5.08079709 0.02538426 7.35286388 0.04178628 9.625 0.0625 C9.625 1.0525 9.625 2.0425 9.625 3.0625 C9.11324219 2.90136719 8.60148437 2.74023438 8.07421875 2.57421875 C-0.50834332 0.78105187 -10.01479372 1.71577543 -18.375 4.0625 C-16.375 1.0625 -16.375 1.0625 -13.8984375 0.37890625 C-9.25466204 -0.03810685 -4.65950024 -0.04320507 0 0 Z " fill="#8B7E73" transform="translate(116.375,277.9375)"/>
<path d="M0 0 C1.010625 0.639375 2.02125 1.27875 3.0625 1.9375 C6.75219924 4.06848956 9.77860255 4.65539613 14 5 C14 5.33 14 5.66 14 6 C12.04174127 6.02694851 10.08337774 6.04637218 8.125 6.0625 C7.03445312 6.07410156 5.94390625 6.08570313 4.8203125 6.09765625 C2 6 2 6 0 5 C0 3.35 0 1.7 0 0 Z " fill="#FBE7D5" transform="translate(235,414)"/>
<path d="M0 0 C1.25541557 3.76624671 0.37061958 5.37188934 -1 9 C-1.66 9 -2.32 9 -3 9 C-2.44271087 5.65626525 -1.64826111 2.96687001 0 0 Z M-4 9 C-2.58312881 13.25061356 -3.80679961 15.71851625 -5 20 C-6.31538327 15.84228506 -5.34433068 13.1120703 -4 9 Z " fill="#ADC6CA" transform="translate(68,302)"/>
<path d="M0 0 C0.99 0.33 1.98 0.66 3 1 C1.6302836 4.99500618 -0.25722422 7.80009492 -3 11 C-3.66 10.67 -4.32 10.34 -5 10 C-3.35 6.7 -1.7 3.4 0 0 Z " fill="#3D484B" transform="translate(300,206)"/>
<path d="M0 0 C0.99 0 1.98 0 3 0 C3.22127098 2.29045368 3.4266504 4.58244764 3.625 6.875 C3.74101562 8.15117187 3.85703125 9.42734375 3.9765625 10.7421875 C3.98429687 11.81726563 3.99203125 12.89234375 4 14 C3.34 14.66 2.68 15.32 2 16 C1.34 10.72 0.68 5.44 0 0 Z " fill="#404B50" transform="translate(346,236)"/>
<path d="M0 0 C0.66 0.33 1.32 0.66 2 1 C1.34 2.32 0.68 3.64 0 5 C-0.66 5 -1.32 5 -2 5 C-2 5.66 -2 6.32 -2 7 C-6.29 7 -10.58 7 -15 7 C-15 6.67 -15 6.34 -15 6 C-14.25234375 5.98582031 -13.5046875 5.97164063 -12.734375 5.95703125 C-6.40090569 5.81724378 -6.40090569 5.81724378 -1.3125 2.4375 C-0.6628125 1.2309375 -0.6628125 1.2309375 0 0 Z " fill="#E79B77" transform="translate(196,416)"/>
<path d="M0 0 C0.33 0.66 0.66 1.32 1 2 C-0.5625 4.5 -0.5625 4.5 -3 7 C-6.75 7.3125 -6.75 7.3125 -10 7 C-9.67 6.34 -9.34 5.68 -9 5 C-5.9375 4.375 -5.9375 4.375 -3 4 C-3 3.34 -3 2.68 -3 2 C-2.01 1.34 -1.02 0.68 0 0 Z " fill="#FDEBDC" transform="translate(259,412)"/>
<path d="M0 0 C1 3 1 3 0.0625 5.1875 C-0.4634375 6.0846875 -0.4634375 6.0846875 -1 7 C-1.66 7 -2.32 7 -3 7 C-3 7.66 -3 8.32 -3 9 C-3.99 9 -4.98 9 -6 9 C-6.33 9.99 -6.66 10.98 -7 12 C-7.33 11.34 -7.66 10.68 -8 10 C-7.67 9.34 -7.34 8.68 -7 8 C-6.34 8 -5.68 8 -5 8 C-4.731875 7.4225 -4.46375 6.845 -4.1875 6.25 C-2.98280141 3.9674132 -1.59201885 2.0262058 0 0 Z " fill="#394448" transform="translate(378,191)"/>
<path d="M0 0 C0.7734375 0.433125 0.7734375 0.433125 1.5625 0.875 C4.12475535 2.14341867 4.12475535 2.14341867 7.5625 2.9375 C10.74136983 3.92005977 12.0201464 4.43783652 14 7 C11.03 6.505 11.03 6.505 8 6 C8 5.34 8 4.68 8 4 C6.8553125 4.12375 6.8553125 4.12375 5.6875 4.25 C3 4 3 4 1.1875 2 C0.5996875 1.01 0.5996875 1.01 0 0 Z " fill="#DD9878" transform="translate(216,187)"/>
<path d="M0 0 C0.66 0 1.32 0 2 0 C2.36630156 3.93774177 2.30233203 5.56539771 0 8.875 C-0.66 9.57625 -1.32 10.2775 -2 11 C-1.34 7.37 -0.68 3.74 0 0 Z " fill="#EEF7F9" transform="translate(425,268)"/>
<path d="M0 0 C0.33 0 0.66 0 1 0 C1 2.64 1 5.28 1 8 C1.66 8 2.32 8 3 8 C3 10.31 3 12.62 3 15 C0.41844384 11.12766576 -0.12134154 9.46463981 -0.0625 4.875 C-0.05347656 3.96492187 -0.04445312 3.05484375 -0.03515625 2.1171875 C-0.02355469 1.41851562 -0.01195312 0.71984375 0 0 Z " fill="#E2946C" transform="translate(197,237)"/>
<path d="M0 0 C1.32 1.32 2.64 2.64 4 4 C3.01 4.495 3.01 4.495 2 5 C0.9590934 6.64142963 -0.04504326 8.30712215 -1 10 C-2.27351308 7.45297384 -1.80191925 6.5717055 -1.0625 3.875 C-0.86785156 3.15054688 -0.67320313 2.42609375 -0.47265625 1.6796875 C-0.31667969 1.12539062 -0.16070312 0.57109375 0 0 Z " fill="#B7C1C0" transform="translate(115,196)"/>
<path d="M0 0 C0.99 0.33 1.98 0.66 3 1 C1.625 3 1.625 3 -1 5 C-4.3580469 5.35791096 -7.63536357 5.23115823 -11 5 C-11 4.67 -11 4.34 -11 4 C-8.03 4 -5.06 4 -2 4 C-1.34 2.68 -0.68 1.36 0 0 Z " fill="#FEF4E9" transform="translate(140,103)"/>
<path d="M0 0 C0.33 0 0.66 0 1 0 C1.99 4.62 2.98 9.24 4 14 C2 13 2 13 0.875 10.9375 C-0.2583306 7.13274727 -0.13434296 3.9631172 0 0 Z " fill="#C0B9B0" transform="translate(223,236)"/>
<path d="M0 0 C0.33 0 0.66 0 1 0 C1.33 3.63 1.66 7.26 2 11 C0.35 11 -1.3 11 -3 11 C-2.690625 10.484375 -2.38125 9.96875 -2.0625 9.4375 C-0.70940713 6.33334577 -0.38640576 3.34884993 0 0 Z " fill="#A6BBC1" transform="translate(282,382)"/>
<path d="M0 0 C1.2380014 3.57644848 0.74926071 6.33694766 0 10 C-2 9 -2 9 -2.8125 6.6875 C-3 4 -3 4 -1.5625 1.6875 C-1.046875 1.130625 -0.53125 0.57375 0 0 Z " fill="#8CA6AC" transform="translate(285,291)"/>
<path d="M0 0 C0.66 0.33 1.32 0.66 2 1 C-0.97 4.96 -0.97 4.96 -4 9 C-4.33 7.68 -4.66 6.36 -5 5 C-2.5625 2.25 -2.5625 2.25 0 0 Z " fill="#AAC5C9" transform="translate(152,354)"/>
<path d="M0 0 C0.66 0.33 1.32 0.66 2 1 C-0.97 4.96 -0.97 4.96 -4 9 C-4.33 8.01 -4.66 7.02 -5 6 C-3.59554165 3.7363436 -1.8032087 1.9791315 0 0 Z " fill="#ACC5C9" transform="translate(400,320)"/>
<path d="M0 0 C3.71599191 -0.20086443 4.77208445 -0.1519437 8 2 C7.67 2.66 7.34 3.32 7 4 C4.36 3.34 1.72 2.68 -1 2 C-0.67 1.34 -0.34 0.68 0 0 Z " fill="#9DB8BC" transform="translate(330,217)"/>
<path d="M0 0 C0.66 0.99 1.32 1.98 2 3 C1.2884375 3.6496875 1.2884375 3.6496875 0.5625 4.3125 C-1.23686957 6.02309613 -1.23686957 6.02309613 -2 9 C-2.66 9 -3.32 9 -4 9 C-2.80100302 5.9168649 -1.52299523 2.93720508 0 0 Z " fill="#9AB2B8" transform="translate(395,219)"/>
<path d="M0 0 C1.9375 0.6875 1.9375 0.6875 4 2 C4.75 4.625 4.75 4.625 5 7 C2.5 5.75 2.5 5.75 0 4 C0 2.68 0 1.36 0 0 Z " fill="#D99E82" transform="translate(243,204)"/>
<path d="M0 0 C0.99 0 1.98 0 3 0 C3 0.99 3 1.98 3 3 C1.02 3.66 -0.96 4.32 -3 5 C-1.125 1.125 -1.125 1.125 0 0 Z " fill="#9EB8BF" transform="translate(315,188)"/>
</svg>
